<svg preserveAspectRatio="none" width="100%" height="100%" overflow="visible" style="display: block;" viewBox="0 0 49.2188 56" fill="none" xmlns="http://www.w3.org/2000/svg">
<g id="Group">
<g id="Vector" opacity="0.8" filter="url(#filter0_ii_0_1067)">
<path d="M31.3687 36.6734C30.7453 36.6406 30.1547 36.9031 29.8267 37.4282L24.6094 45.5656L19.3921 37.4282C19.0641 36.9031 18.4734 36.6079 17.85 36.6734C6.98906 37.822 0 41.5298 0 46.1563C0 52.5547 12.6656 56 24.6094 56C36.5531 56 49.2188 52.5547 49.2188 46.1563C49.2188 41.5298 42.2297 37.822 31.3687 36.6734Z" fill="url(#paint0_linear_0_1067)"/>
</g>
<g id="Vector_2" filter="url(#filter1_ii_0_1067)">
<path d="M24.6094 0C15.4942 0 7.89826 7.42581 7.89826 16.8771C7.89826 20.4672 8.9616 23.6892 11.0279 26.6965L23.3334 46.2943C23.6371 46.7852 24.1233 47 24.6095 47C25.0955 47 25.5818 46.7852 25.8855 46.2943L38.2517 26.6351C40.2572 23.7507 41.3205 20.3752 41.3205 16.8771C41.3205 7.57924 33.8158 0 24.6094 0ZM24.6094 24.5485C20.421 24.5485 17.0134 21.1071 17.0134 16.8771C17.0134 12.6471 20.421 9.20568 24.6094 9.20568C28.7978 9.20568 32.2053 12.6471 32.2053 16.8771C32.2053 21.1071 28.7978 24.5485 24.6094 24.5485Z" fill="url(#paint1_linear_0_1067)"/>
</g>
</g>
<defs>
<filter id="filter0_ii_0_1067" x="0" y="36.6644" width="49.7766" height="21.5231" filterUnits="userSpaceOnUse" color-interpolation-filters="sRGB">
<feFlood flood-opacity="0" result="BackgroundImageFix"/>
<feBlend mode="normal" in="SourceGraphic" in2="BackgroundImageFix" result="shape"/>
<feColorMatrix in="SourceAlpha" type="matrix" values="0 0 0 0 0 0 0 0 0 0 0 0 0 0 0 0 0 0 127 0" result="hardAlpha"/>
<feOffset dx="0.328125" dy="2.1875"/>
<feGaussianBlur stdDeviation="1.69531"/>
<feComposite in2="hardAlpha" operator="arithmetic" k2="-1" k3="1"/>
<feColorMatrix type="matrix" values="0 0 0 0 1 0 0 0 0 1 0 0 0 0 1 0 0 0 0.9 0"/>
<feBlend mode="normal" in2="shape" result="effect1_innerShadow_0_1067"/>
<feColorMatrix in="SourceAlpha" type="matrix" values="0 0 0 0 0 0 0 0 0 0 0 0 0 0 0 0 0 0 127 0" result="hardAlpha"/>
<feOffset dx="0.65625" dy="0.4375"/>
<feGaussianBlur stdDeviation="0.278906"/>
<feComposite in2="hardAlpha" operator="arithmetic" k2="-1" k3="1"/>
<feColorMatrix type="matrix" values="0 0 0 0 1 0 0 0 0 1 0 0 0 0 1 0 0 0 1 0"/>
<feBlend mode="normal" in2="effect1_innerShadow_0_1067" result="effect2_innerShadow_0_1067"/>
</filter>
<filter id="filter1_ii_0_1067" x="7.89826" y="0" width="34.0048" height="49.2847" filterUnits="userSpaceOnUse" color-interpolation-filters="sRGB">
<feFlood flood-opacity="0" result="BackgroundImageFix"/>
<feBlend mode="normal" in="SourceGraphic" in2="BackgroundImageFix" result="shape"/>
<feColorMatrix in="SourceAlpha" type="matrix" values="0 0 0 0 0 0 0 0 0 0 0 0 0 0 0 0 0 0 127 0" result="hardAlpha"/>
<feOffset dx="0.342708" dy="2.28472"/>
<feGaussianBlur stdDeviation="1.77066"/>
<feComposite in2="hardAlpha" operator="arithmetic" k2="-1" k3="1"/>
<feColorMatrix type="matrix" values="0 0 0 0 1 0 0 0 0 1 0 0 0 0 1 0 0 0 0.9 0"/>
<feBlend mode="normal" in2="shape" result="effect1_innerShadow_0_1067"/>
<feColorMatrix in="SourceAlpha" type="matrix" values="0 0 0 0 0 0 0 0 0 0 0 0 0 0 0 0 0 0 127 0" result="hardAlpha"/>
<feOffset dx="0.685417" dy="0.456944"/>
<feGaussianBlur stdDeviation="0.291302"/>
<feComposite in2="hardAlpha" operator="arithmetic" k2="-1" k3="1"/>
<feColorMatrix type="matrix" values="0 0 0 0 1 0 0 0 0 1 0 0 0 0 1 0 0 0 1 0"/>
<feBlend mode="normal" in2="effect1_innerShadow_0_1067" result="effect2_innerShadow_0_1067"/>
</filter>
<linearGradient id="paint0_linear_0_1067" x1="24.6094" y1="36.6644" x2="24.6094" y2="56" gradientUnits="userSpaceOnUse">
<stop stop-color="#3BBCB7"/>
<stop offset="1" stop-color="#8CFFFB"/>
</linearGradient>
<linearGradient id="paint1_linear_0_1067" x1="24.6094" y1="0" x2="24.6094" y2="47" gradientUnits="userSpaceOnUse">
<stop stop-color="#3BBCB7"/>
<stop offset="1" stop-color="#8CFFFB"/>
</linearGradient>
</defs>
</svg>
