<svg preserveAspectRatio="none" width="100%" height="100%" overflow="visible" style="display: block;" viewBox="0 0 55.9992 48.1009" fill="none" xmlns="http://www.w3.org/2000/svg">
<g id="31 - 40">
<g id="Vector" filter="url(#filter0_ii_0_1244)">
<path d="M49.6355 13.9999H26.7265C25.0394 14.0019 23.4219 14.673 22.229 15.866C21.036 17.059 20.3649 18.6764 20.3629 20.3635V35.6362C20.3649 37.3233 21.036 38.9408 22.229 40.1338C23.4219 41.3267 25.0394 41.9978 26.7265 41.9998H39.5632L45.1034 47.5413C45.3704 47.8085 45.7106 47.9904 46.0811 48.0642C46.4515 48.1379 46.8355 48.1001 47.1844 47.9555C47.5334 47.811 47.8316 47.5661 48.0414 47.252C48.2511 46.9379 48.363 46.5686 48.3628 46.1909V41.9998H49.6355C51.3227 41.9978 52.9401 41.3267 54.1331 40.1338C55.3261 38.9408 55.9972 37.3233 55.9992 35.6362V20.3635C55.9972 18.6764 55.3261 17.059 54.1331 15.866C52.9401 14.673 51.3227 14.0019 49.6355 13.9999ZM44.5446 26.0908H43.8332C43.539 28.7187 42.342 31.1631 40.4465 33.0068C41.5402 33.4775 42.7176 33.7225 43.9083 33.7271C44.2507 33.7253 44.5802 33.8574 44.8265 34.0952C45.0729 34.333 45.2165 34.6576 45.2268 34.9999C45.2319 35.1646 45.204 35.3288 45.1446 35.4826C45.0853 35.6363 44.9957 35.7767 44.8812 35.8953C44.7668 36.0139 44.6297 36.1084 44.4781 36.1732C44.3265 36.238 44.1635 36.2718 43.9986 36.2726C41.9641 36.267 39.9668 35.7272 38.2065 34.7071C36.4623 35.7314 34.4764 36.2718 32.4538 36.2726C32.1114 36.2744 31.7818 36.1423 31.5355 35.9045C31.2891 35.6667 31.1455 35.3421 31.1352 34.9999C31.1301 34.8351 31.1581 34.671 31.2174 34.5172C31.2768 34.3634 31.3663 34.223 31.4808 34.1044C31.5953 33.9858 31.7323 33.8913 31.8839 33.8265C32.0355 33.7617 32.1985 33.7279 32.3634 33.7271C33.5931 33.7286 34.8103 33.4801 35.941 32.9966C34.9543 32.0581 34.1457 30.9486 33.5547 29.7219C33.4768 29.5702 33.4302 29.4044 33.4176 29.2344C33.405 29.0644 33.4267 28.8936 33.4815 28.7321C33.5362 28.5706 33.6228 28.4218 33.7361 28.2944C33.8494 28.1671 33.9872 28.0638 34.1412 27.9907C34.2953 27.9176 34.4624 27.8762 34.6327 27.869C34.8031 27.8617 34.9731 27.8887 35.1328 27.9485C35.2925 28.0082 35.4385 28.0994 35.5623 28.2167C35.686 28.334 35.785 28.4749 35.8532 28.6311C36.4022 29.7843 37.1936 30.8053 38.1734 31.6246C39.8497 30.2238 40.9494 28.253 41.261 26.0908H31.8174C31.4798 26.0908 31.1561 25.9567 30.9174 25.718C30.6788 25.4793 30.5447 25.1556 30.5447 24.8181C30.5447 24.4805 30.6788 24.1568 30.9174 23.9181C31.1561 23.6794 31.4798 23.5453 31.8174 23.5453H36.9083V20.9999C36.9083 20.6623 37.0424 20.3386 37.2811 20.0999C37.5197 19.8612 37.8435 19.7272 38.181 19.7272C38.5186 19.7272 38.8423 19.8612 39.081 20.0999C39.3197 20.3386 39.4537 20.6623 39.4537 20.9999V23.5453H44.5446C44.8822 23.5453 45.2059 23.6794 45.4446 23.9181C45.6833 24.1568 45.8174 24.4805 45.8174 24.8181C45.8174 25.1556 45.6833 25.4793 45.4446 25.718C45.2059 25.9567 44.8822 26.0908 44.5446 26.0908ZM17.8174 10.7124L15.7441 15.2726H19.4261C19.5178 15.1453 19.6158 15.0181 19.715 14.8908L17.8174 10.7124Z" fill="url(#paint0_linear_0_1244)"/>
</g>
<g id="Vector_2" opacity="0.8" filter="url(#filter1_ii_0_1244)">
<path d="M29.2729 0H6.36384C4.67672 0.00202091 3.05928 0.673122 1.86631 1.8661C0.673335 3.05907 0.00223453 4.67651 0.000213623 6.36363V21.6363C0.00223453 23.3235 0.673335 24.9409 1.86631 26.1339C3.05928 27.3268 4.67672 27.9979 6.36384 28H7.63657V32.191C7.6364 32.5688 7.74827 32.938 7.95803 33.2521C8.16779 33.5662 8.46602 33.8111 8.81496 33.9556C9.16391 34.1002 9.5479 34.138 9.91834 34.0643C10.2888 33.9905 10.629 33.8086 10.896 33.5414L16.4362 28H17.8184V20.3636C17.821 19.5011 17.9496 18.6435 18.2002 17.8182H14.5882L12.6129 22.1632C12.4684 22.4628 12.2124 22.6939 11.8997 22.8071C11.5869 22.9203 11.2423 22.9065 10.9395 22.7688C10.6368 22.6311 10.4 22.3803 10.2798 22.0702C10.1597 21.76 10.1657 21.4152 10.2966 21.1094L16.6602 7.10945C16.7614 6.88724 16.9245 6.69885 17.1298 6.56675C17.3352 6.43464 17.5742 6.3644 17.8184 6.3644C18.0626 6.3644 18.3016 6.43464 18.5069 6.56675C18.7123 6.69885 18.8753 6.88724 18.9766 7.10945L21.6709 13.0365C23.1553 12.0051 24.9199 11.453 26.7275 11.4545H35.6365V6.36363C35.6345 4.67651 34.9634 3.05907 33.7704 1.8661C32.5775 0.673122 30.96 0.00202091 29.2729 0Z" fill="url(#paint1_linear_0_1244)"/>
</g>
</g>
<defs>
<filter id="filter0_ii_0_1244" x="15.7441" y="10.7124" width="40.8128" height="39.576" filterUnits="userSpaceOnUse" color-interpolation-filters="sRGB">
<feFlood flood-opacity="0" result="BackgroundImageFix"/>
<feBlend mode="normal" in="SourceGraphic" in2="BackgroundImageFix" result="shape"/>
<feColorMatrix in="SourceAlpha" type="matrix" values="0 0 0 0 0 0 0 0 0 0 0 0 0 0 0 0 0 0 127 0" result="hardAlpha"/>
<feOffset dx="0.328125" dy="2.1875"/>
<feGaussianBlur stdDeviation="1.69531"/>
<feComposite in2="hardAlpha" operator="arithmetic" k2="-1" k3="1"/>
<feColorMatrix type="matrix" values="0 0 0 0 1 0 0 0 0 1 0 0 0 0 1 0 0 0 0.9 0"/>
<feBlend mode="normal" in2="shape" result="effect1_innerShadow_0_1244"/>
<feColorMatrix in="SourceAlpha" type="matrix" values="0 0 0 0 0 0 0 0 0 0 0 0 0 0 0 0 0 0 127 0" result="hardAlpha"/>
<feOffset dx="0.65625" dy="0.4375"/>
<feGaussianBlur stdDeviation="0.278906"/>
<feComposite in2="hardAlpha" operator="arithmetic" k2="-1" k3="1"/>
<feColorMatrix type="matrix" values="0 0 0 0 1 0 0 0 0 1 0 0 0 0 1 0 0 0 1 0"/>
<feBlend mode="normal" in2="effect1_innerShadow_0_1244" result="effect2_innerShadow_0_1244"/>
</filter>
<filter id="filter1_ii_0_1244" x="0.000213623" y="0" width="36.1941" height="36.2885" filterUnits="userSpaceOnUse" color-interpolation-filters="sRGB">
<feFlood flood-opacity="0" result="BackgroundImageFix"/>
<feBlend mode="normal" in="SourceGraphic" in2="BackgroundImageFix" result="shape"/>
<feColorMatrix in="SourceAlpha" type="matrix" values="0 0 0 0 0 0 0 0 0 0 0 0 0 0 0 0 0 0 127 0" result="hardAlpha"/>
<feOffset dx="0.328125" dy="2.1875"/>
<feGaussianBlur stdDeviation="1.69531"/>
<feComposite in2="hardAlpha" operator="arithmetic" k2="-1" k3="1"/>
<feColorMatrix type="matrix" values="0 0 0 0 1 0 0 0 0 1 0 0 0 0 1 0 0 0 0.9 0"/>
<feBlend mode="normal" in2="shape" result="effect1_innerShadow_0_1244"/>
<feColorMatrix in="SourceAlpha" type="matrix" values="0 0 0 0 0 0 0 0 0 0 0 0 0 0 0 0 0 0 127 0" result="hardAlpha"/>
<feOffset dx="0.65625" dy="0.4375"/>
<feGaussianBlur stdDeviation="0.278906"/>
<feComposite in2="hardAlpha" operator="arithmetic" k2="-1" k3="1"/>
<feColorMatrix type="matrix" values="0 0 0 0 1 0 0 0 0 1 0 0 0 0 1 0 0 0 1 0"/>
<feBlend mode="normal" in2="effect1_innerShadow_0_1244" result="effect2_innerShadow_0_1244"/>
</filter>
<linearGradient id="paint0_linear_0_1244" x1="35.8717" y1="10.7124" x2="35.8717" y2="48.1009" gradientUnits="userSpaceOnUse">
<stop stop-color="#3BBCB7"/>
<stop offset="1" stop-color="#8CFFFB"/>
</linearGradient>
<linearGradient id="paint1_linear_0_1244" x1="17.8184" y1="0" x2="17.8184" y2="34.101" gradientUnits="userSpaceOnUse">
<stop stop-color="#3BBCB7"/>
<stop offset="1" stop-color="#8CFFFB"/>
</linearGradient>
</defs>
</svg>
