<svg preserveAspectRatio="none" width="100%" height="100%" overflow="visible" style="display: block;" viewBox="0 0 55.9972 48.1009" fill="none" xmlns="http://www.w3.org/2000/svg">
<g id="31 - 40">
<g id="Vector" filter="url(#filter0_ii_0_4)">
<path d="M49.6336 13.9999H26.7245C25.0374 14.0019 23.42 14.673 22.227 15.866C21.034 17.059 20.3629 18.6764 20.3609 20.3635V35.6362C20.3629 37.3233 21.034 38.9408 22.227 40.1338C23.42 41.3267 25.0374 41.9978 26.7245 41.9998H39.5612L45.1014 47.5413C45.3684 47.8085 45.7087 47.9904 46.0791 48.0642C46.4495 48.1379 46.8335 48.1001 47.1825 47.9555C47.5314 47.811 47.8296 47.5661 48.0394 47.252C48.2492 46.9379 48.361 46.5686 48.3609 46.1909V41.9998H49.6336C51.3207 41.9978 52.9382 41.3267 54.1311 40.1338C55.3241 38.9408 55.9952 37.3233 55.9972 35.6362V20.3635C55.9952 18.6764 55.3241 17.059 54.1311 15.866C52.9382 14.673 51.3207 14.0019 49.6336 13.9999ZM44.5427 26.0908H43.8312C43.5371 28.7187 42.3401 31.1631 40.4445 33.0068C41.5382 33.4775 42.7157 33.7225 43.9063 33.7271C44.2487 33.7253 44.5782 33.8574 44.8246 34.0952C45.0709 34.333 45.2146 34.6576 45.2249 34.9999C45.23 35.1646 45.202 35.3288 45.1427 35.4826C45.0833 35.6363 44.9938 35.7767 44.8793 35.8953C44.7648 36.0139 44.6277 36.1084 44.4762 36.1732C44.3246 36.238 44.1615 36.2718 43.9967 36.2726C41.9622 36.267 39.9648 35.7272 38.2045 34.7071C36.4604 35.7314 34.4745 36.2718 32.4518 36.2726C32.1094 36.2744 31.7799 36.1423 31.5335 35.9045C31.2872 35.6667 31.1435 35.3421 31.1333 34.9999C31.1282 34.8351 31.1561 34.671 31.2155 34.5172C31.2748 34.3634 31.3644 34.223 31.4788 34.1044C31.5933 33.9858 31.7304 33.8913 31.882 33.8265C32.0336 33.7617 32.1966 33.7279 32.3614 33.7271C33.5912 33.7286 34.8084 33.4801 35.9391 32.9966C34.9523 32.0581 34.1438 30.9486 33.5527 29.7219C33.4748 29.5702 33.4282 29.4044 33.4157 29.2344C33.4031 29.0644 33.4248 28.8936 33.4795 28.7321C33.5342 28.5706 33.6208 28.4218 33.7341 28.2944C33.8475 28.1671 33.9853 28.0638 34.1393 27.9907C34.2933 27.9176 34.4604 27.8762 34.6308 27.869C34.8011 27.8617 34.9712 27.8887 35.1308 27.9485C35.2905 28.0082 35.4366 28.0994 35.5603 28.2167C35.6841 28.334 35.783 28.4749 35.8513 28.6311C36.4003 29.7843 37.1917 30.8053 38.1714 31.6246C39.8478 30.2238 40.9474 28.253 41.2591 26.0908H31.8154C31.4779 26.0908 31.1542 25.9567 30.9155 25.718C30.6768 25.4793 30.5427 25.1556 30.5427 24.8181C30.5427 24.4805 30.6768 24.1568 30.9155 23.9181C31.1542 23.6794 31.4779 23.5453 31.8154 23.5453H36.9063V20.9999C36.9063 20.6623 37.0404 20.3386 37.2791 20.0999C37.5178 19.8612 37.8415 19.7272 38.1791 19.7272C38.5166 19.7272 38.8403 19.8612 39.079 20.0999C39.3177 20.3386 39.4518 20.6623 39.4518 20.9999V23.5453H44.5427C44.8802 23.5453 45.204 23.6794 45.4426 23.9181C45.6813 24.1568 45.8154 24.4805 45.8154 24.8181C45.8154 25.1556 45.6813 25.4793 45.4426 25.718C45.204 25.9567 44.8802 26.0908 44.5427 26.0908ZM17.8155 10.7124L15.7422 15.2726H19.4242C19.5158 15.1453 19.6138 15.0181 19.7131 14.8908L17.8155 10.7124Z" fill="url(#paint0_linear_0_4)"/>
</g>
<g id="Vector_2" opacity="0.8" filter="url(#filter1_ii_0_4)">
<path d="M29.2729 0H6.36384C4.67672 0.00202091 3.05928 0.673122 1.86631 1.8661C0.673335 3.05907 0.00223453 4.67651 0.000213623 6.36363V21.6363C0.00223453 23.3235 0.673335 24.9409 1.86631 26.1339C3.05928 27.3268 4.67672 27.9979 6.36384 28H7.63657V32.191C7.6364 32.5688 7.74827 32.938 7.95803 33.2521C8.16779 33.5662 8.46602 33.8111 8.81496 33.9556C9.16391 34.1002 9.5479 34.138 9.91834 34.0643C10.2888 33.9905 10.629 33.8086 10.896 33.5414L16.4362 28H17.8184V20.3636C17.821 19.5011 17.9496 18.6435 18.2002 17.8182H14.5882L12.6129 22.1632C12.4684 22.4628 12.2124 22.6939 11.8997 22.8071C11.5869 22.9203 11.2423 22.9065 10.9395 22.7688C10.6368 22.6311 10.4 22.3803 10.2798 22.0702C10.1597 21.76 10.1657 21.4152 10.2966 21.1094L16.6602 7.10945C16.7614 6.88724 16.9245 6.69885 17.1298 6.56675C17.3352 6.43464 17.5742 6.3644 17.8184 6.3644C18.0626 6.3644 18.3016 6.43464 18.5069 6.56675C18.7123 6.69885 18.8753 6.88724 18.9766 7.10945L21.6709 13.0365C23.1553 12.0051 24.9199 11.453 26.7275 11.4545H35.6365V6.36363C35.6345 4.67651 34.9634 3.05907 33.7704 1.8661C32.5775 0.673122 30.96 0.00202091 29.2729 0Z" fill="url(#paint1_linear_0_4)"/>
</g>
</g>
<defs>
<filter id="filter0_ii_0_4" x="15.7422" y="10.7124" width="40.8128" height="39.576" filterUnits="userSpaceOnUse" color-interpolation-filters="sRGB">
<feFlood flood-opacity="0" result="BackgroundImageFix"/>
<feBlend mode="normal" in="SourceGraphic" in2="BackgroundImageFix" result="shape"/>
<feColorMatrix in="SourceAlpha" type="matrix" values="0 0 0 0 0 0 0 0 0 0 0 0 0 0 0 0 0 0 127 0" result="hardAlpha"/>
<feOffset dx="0.328125" dy="2.1875"/>
<feGaussianBlur stdDeviation="1.69531"/>
<feComposite in2="hardAlpha" operator="arithmetic" k2="-1" k3="1"/>
<feColorMatrix type="matrix" values="0 0 0 0 1 0 0 0 0 1 0 0 0 0 1 0 0 0 0.9 0"/>
<feBlend mode="normal" in2="shape" result="effect1_innerShadow_0_4"/>
<feColorMatrix in="SourceAlpha" type="matrix" values="0 0 0 0 0 0 0 0 0 0 0 0 0 0 0 0 0 0 127 0" result="hardAlpha"/>
<feOffset dx="0.65625" dy="0.4375"/>
<feGaussianBlur stdDeviation="0.278906"/>
<feComposite in2="hardAlpha" operator="arithmetic" k2="-1" k3="1"/>
<feColorMatrix type="matrix" values="0 0 0 0 1 0 0 0 0 1 0 0 0 0 1 0 0 0 1 0"/>
<feBlend mode="normal" in2="effect1_innerShadow_0_4" result="effect2_innerShadow_0_4"/>
</filter>
<filter id="filter1_ii_0_4" x="0.000213623" y="0" width="36.1941" height="36.2885" filterUnits="userSpaceOnUse" color-interpolation-filters="sRGB">
<feFlood flood-opacity="0" result="BackgroundImageFix"/>
<feBlend mode="normal" in="SourceGraphic" in2="BackgroundImageFix" result="shape"/>
<feColorMatrix in="SourceAlpha" type="matrix" values="0 0 0 0 0 0 0 0 0 0 0 0 0 0 0 0 0 0 127 0" result="hardAlpha"/>
<feOffset dx="0.328125" dy="2.1875"/>
<feGaussianBlur stdDeviation="1.69531"/>
<feComposite in2="hardAlpha" operator="arithmetic" k2="-1" k3="1"/>
<feColorMatrix type="matrix" values="0 0 0 0 1 0 0 0 0 1 0 0 0 0 1 0 0 0 0.9 0"/>
<feBlend mode="normal" in2="shape" result="effect1_innerShadow_0_4"/>
<feColorMatrix in="SourceAlpha" type="matrix" values="0 0 0 0 0 0 0 0 0 0 0 0 0 0 0 0 0 0 127 0" result="hardAlpha"/>
<feOffset dx="0.65625" dy="0.4375"/>
<feGaussianBlur stdDeviation="0.278906"/>
<feComposite in2="hardAlpha" operator="arithmetic" k2="-1" k3="1"/>
<feColorMatrix type="matrix" values="0 0 0 0 1 0 0 0 0 1 0 0 0 0 1 0 0 0 1 0"/>
<feBlend mode="normal" in2="effect1_innerShadow_0_4" result="effect2_innerShadow_0_4"/>
</filter>
<linearGradient id="paint0_linear_0_4" x1="35.8697" y1="10.7124" x2="35.8697" y2="48.1009" gradientUnits="userSpaceOnUse">
<stop stop-color="#3BBCB7"/>
<stop offset="1" stop-color="#8CFFFB"/>
</linearGradient>
<linearGradient id="paint1_linear_0_4" x1="17.8184" y1="0" x2="17.8184" y2="34.101" gradientUnits="userSpaceOnUse">
<stop stop-color="#3BBCB7"/>
<stop offset="1" stop-color="#8CFFFB"/>
</linearGradient>
</defs>
</svg>
