<svg preserveAspectRatio="none" width="100%" height="100%" overflow="visible" style="display: block;" viewBox="0 0 112.369 13.7887" fill="none" xmlns="http://www.w3.org/2000/svg">
<g id="Group">
<path id="Vector" d="M0 0.000186512V1.90905H5.33793V13.7887H7.48411V1.90905H12.822V0.000186512H0Z" fill="var(--fill-0, white)"/>
<path id="Vector_2" d="M30.6899 8.84272C32.6022 8.15484 33.4104 6.55896 33.4104 4.60883C33.4104 2.00521 31.9521 4.25267e-05 28.3098 4.25267e-05H20.8051V13.7886H22.9513V9.21761H28.3098C28.4646 9.21761 28.6022 9.21761 28.7432 9.19697L31.3055 13.7886H33.493L30.6968 8.84272H30.6899ZM27.9728 7.30875H22.9478V1.9089H27.9728C30.0811 1.9089 31.2815 2.61742 31.2815 4.60883C31.2815 6.60023 30.0811 7.30875 27.9728 7.30875Z" fill="var(--fill-0, white)"/>
<path id="Vector_3" d="M49.0498 4.25267e-05H46.7282L40.5992 13.7886H42.8452L43.7291 11.7765H52.0249L52.9088 13.7886H55.1547L49.0464 4.25267e-05H49.0498ZM44.503 10.0259L47.8908 2.34227L51.2545 10.0259H44.4995H44.503Z" fill="var(--fill-0, white)"/>
<path id="Vector_4" d="M71.4147 4.25267e-05L66.3897 11.4429L61.3476 4.25267e-05H59.1017L65.2272 13.7886H67.5523L73.6606 4.25267e-05H71.4147Z" fill="var(--fill-0, white)"/>
<path id="Vector_5" d="M93.062 1.88827V4.25267e-05H81.5366V13.7886H93.062V11.8969H83.6862V7.85905H92.6458V6.14624H83.6862V1.88827H93.062Z" fill="var(--fill-0, white)"/>
<path id="Vector_6" d="M103.289 11.8763V4.25267e-05H101.142V13.7886H112.369V11.8763H103.285H103.289Z" fill="var(--fill-0, white)"/>
</g>
</svg>
