<svg preserveAspectRatio="none" width="100%" height="100%" overflow="visible" style="display: block;" viewBox="0 0 183.938 43.8406" fill="none" xmlns="http://www.w3.org/2000/svg">
<g id="Group">
<path id="Vector" d="M32.4197 0L21.197 19.4291L16.6123 0H5.24851L0 33.1867H8.06537L11.5529 10.9304L15.7077 33.1867H21.9158L33.8986 11.0748L30.4145 33.1867H38.5349L43.7834 0H32.4197Z" fill="var(--fill-0, white)"/>
<path id="Vector_2" d="M66.8283 9.16465C64.8025 7.92303 62.3193 7.30394 59.3545 7.30394C56.3898 7.30394 53.7415 7.90583 51.3064 9.1165C48.8747 10.3272 46.8764 11.9506 45.3184 13.9901C43.7569 16.0228 42.7698 18.2515 42.3571 20.6728C41.9065 23.2868 42.1335 25.6015 43.0243 27.6239C43.9151 29.6497 45.4044 31.2318 47.4886 32.3737C49.5729 33.5155 52.1421 34.0968 55.1998 34.0968C57.8412 34.0968 60.3588 33.6084 62.7458 32.6385C65.1293 31.6651 67.1688 30.3822 68.8576 28.7967L63.272 25.1647C62.5394 25.8973 61.5523 26.5095 60.3107 26.9979C59.0656 27.4966 57.7793 27.7408 56.4414 27.7408C54.5291 27.7408 53.0089 27.3006 51.8808 26.4269C50.7526 25.5533 50.2161 24.4149 50.2849 23.0116H71.0519C71.2136 22.5955 71.4371 21.8354 71.7226 20.721C72.1388 18.3616 71.9255 16.1604 71.1035 14.1036C70.2712 12.0537 68.8438 10.3994 66.8283 9.16121V9.16465ZM63.7982 18.3788H54.5084L50.2918 22.169C50.2918 22.169 50.3881 21.0581 50.4362 20.7451C50.6357 19.4828 51.1894 18.3788 51.1894 18.3788C51.7638 16.917 52.7028 15.758 54.0063 14.8981C55.3098 14.0314 56.8232 13.6049 58.5463 13.6049C59.7845 13.6049 60.806 13.8216 61.597 14.2481C62.395 14.678 62.9762 15.2696 63.3408 16.0194C63.7088 16.7691 63.8601 17.5568 63.7982 18.3788Z" fill="var(--fill-0, white)"/>
<path id="Vector_3" d="M154.285 8.21177H145.597L143.905 19.0183C143.585 20.6899 143.014 22.1654 142.182 23.4242C141.339 24.714 140.311 25.7079 139.1 26.4096C137.89 27.1078 136.621 27.462 135.283 27.462C133.721 27.462 132.6 26.9771 131.915 26.0037C131.228 25.0338 131.028 23.72 131.317 22.0656L133.467 8.21521H115.193L116.321 1.00625L106.774 5.51529L106.502 8.21521H103.3L102.344 14.468H105.515L104.287 22.3511C103.936 24.5454 104.053 26.4681 104.641 28.1018C105.229 29.7423 106.278 31.0012 107.771 31.8748C109.267 32.7484 111.135 33.1886 113.363 33.1886H116.18L117.281 26.1207H116.325C115.338 26.1207 114.581 26.0072 114.058 25.7836C113.532 25.5635 113.181 25.1783 113.006 24.6417C112.827 24.0949 112.82 23.3485 112.978 22.3958L114.216 14.4646H123.792L122.481 22.8257C121.91 26.4577 122.333 29.2436 123.75 31.1835C125.164 33.1267 127.468 34.1001 130.653 34.1001C133.068 34.1001 135.386 33.4947 137.597 32.2841C139.461 31.2626 141.085 29.9074 142.461 28.2221L141.683 33.1611C143.909 30.7776 147.045 28.3494 151.468 26.1757L154.285 8.21521V8.21177Z" fill="var(--fill-0, white)"/>
<path id="Vector_4" d="M183.276 13.8697C182.591 11.8199 181.436 10.2102 179.812 9.04427C178.189 7.8852 176.276 7.30394 174.082 7.30394C171.888 7.30394 169.607 7.90239 167.54 9.09586C165.962 10.0039 164.569 11.1629 163.362 12.5765L164.053 8.21194H155.406L152.686 25.5946C154.653 24.6935 156.861 23.8474 159.334 23.0701C160.135 22.819 160.961 22.5714 161.817 22.3444C163.912 21.7631 166.175 21.2403 168.627 20.7795H168.655L162.969 15.0666V15.0494L178.911 17.3607L166.763 28.6178L168.576 20.9961C166.897 21.5602 164.263 22.6264 161.484 24.4527C160.84 24.8758 160.18 25.3435 159.533 25.856C155.798 28.776 152.146 33.151 150.495 39.5861L149.828 43.8406H158.423L160.72 29.3126C161.37 30.5026 162.244 31.5035 163.341 32.3014C164.964 33.4949 166.908 34.0968 169.167 34.0968C171.427 34.0968 173.552 33.4949 175.637 32.3014C177.721 31.1114 179.496 29.4914 180.961 27.4588C182.429 25.4192 183.351 23.1733 183.733 20.7244C184.115 18.2102 183.963 15.9196 183.279 13.8697H183.276Z" fill="var(--fill-0, white)"/>
<path id="Vector_5" d="M97.4237 9.16465C95.3979 7.92303 92.9147 7.30394 89.9465 7.30394C86.9783 7.30394 84.3368 7.90583 81.9017 9.1165C79.4701 10.3272 77.4649 11.9506 75.9137 13.9901C74.3523 16.0228 73.3652 18.2515 72.9524 20.6728C72.5019 23.2868 72.7289 25.6015 73.6197 27.6239C74.5105 29.6497 75.9997 31.2318 78.084 32.3737C80.1683 33.5155 82.7375 34.0968 85.7951 34.0968C88.4366 34.0968 90.9542 33.6084 93.3411 32.6385C95.7246 31.6651 97.7642 30.3822 99.4529 28.7967L93.8605 25.1647C93.1279 25.8973 92.1477 26.5095 90.906 26.9979C89.661 27.4966 88.3746 27.7408 87.0367 27.7408C85.1244 27.7408 83.6042 27.3006 82.4761 26.4269C81.348 25.5533 80.8114 24.4149 80.8802 23.0116H101.647C101.809 22.5955 102.032 21.8354 102.318 20.721C102.731 18.3616 102.521 16.1604 101.699 14.1036C100.867 12.0537 99.4392 10.3994 97.4237 9.16121V9.16465ZM94.3901 18.3788H85.1038L80.8905 22.169C80.8905 22.169 80.9868 21.0581 81.0316 20.7451C81.231 19.4828 81.7848 18.3788 81.7848 18.3788C82.3557 16.917 83.2981 15.758 84.6016 14.8981C85.9052 14.0314 87.4185 13.6049 89.1416 13.6049C90.3798 13.6049 91.4013 13.8216 92.1924 14.2481C92.9903 14.678 93.5716 15.2696 93.9361 16.0194C94.3042 16.7691 94.4521 17.5568 94.3901 18.3788Z" fill="var(--fill-0, white)"/>
</g>
</svg>
