<svg width="100" height="29" viewBox="0 0 100 29" fill="none" xmlns="http://www.w3.org/2000/svg">
<path d="M0 21.9417V22.8883H2.9012V28.78H4.06765V22.8883H6.96885V21.9417H0Z" fill="#3BBCB7"/>
<path d="M16.682 26.3272C17.7214 25.986 18.1607 25.1945 18.1607 24.2274C18.1607 22.9361 17.3681 21.9417 15.3884 21.9417H11.3096V28.78H12.476V26.5131H15.3884C15.4726 26.5131 15.5473 26.5131 15.624 26.5029L17.0166 28.78H18.2055L16.6858 26.3272H16.682ZM15.2052 25.5664H12.4742V22.8883H15.2052C16.3511 22.8883 17.0035 23.2397 17.0035 24.2274C17.0035 25.215 16.3511 25.5664 15.2052 25.5664Z" fill="#3BBCB7"/>
<path d="M26.6559 21.9417H25.3941L22.063 28.78H23.2837L23.7641 27.7822H28.2729L28.7533 28.78H29.974L26.6541 21.9417H26.6559ZM24.1847 26.9139L26.026 23.1033L27.8542 26.9139H24.1828H24.1847Z" fill="#3BBCB7"/>
<path d="M38.8157 21.9417L36.0846 27.6167L33.3442 21.9417H32.1235L35.4528 28.78H36.7165L40.0364 21.9417H38.8157Z" fill="#3BBCB7"/>
<path d="M50.582 22.8781V21.9417H44.3179V28.78H50.582V27.8419H45.4862V25.8393H50.3558V24.9898H45.4862V22.8781H50.582Z" fill="#3BBCB7"/>
<path d="M56.1381 27.8316V21.9417H54.9717V28.78H61.0732V27.8316H56.1363H56.1381Z" fill="#3BBCB7"/>
<path d="M17.6554 0L11.5558 9.63584L9.064 0H2.88775L0.0351562 16.4589H4.41873L6.31422 5.42091L8.57237 16.4589H11.9465L18.4592 5.49255L16.5656 16.4589H20.9791L23.8317 0H17.6554Z" fill="#3BBCB7"/>
<path d="M36.3538 4.54531C35.2528 3.92953 33.9031 3.6225 32.2918 3.6225C30.6804 3.6225 29.241 3.92101 27.9175 4.52143C26.5959 5.12186 25.5099 5.92698 24.663 6.9385C23.8144 7.9466 23.2779 9.05193 23.0536 10.2528C22.8087 11.5492 22.9321 12.6971 23.4162 13.7001C23.9004 14.7048 24.7098 15.4895 25.8426 16.0558C26.9754 16.6221 28.3718 16.9104 30.0336 16.9104C31.4693 16.9104 32.8376 16.6682 34.1349 16.1871C35.4304 15.7044 36.5389 15.0682 37.4567 14.2818L34.4209 12.4805C34.0228 12.8438 33.4863 13.1475 32.8114 13.3897C32.1347 13.637 31.4356 13.7581 30.7084 13.7581C29.6691 13.7581 28.8429 13.5398 28.2297 13.1065C27.6166 12.6733 27.325 12.1087 27.3624 11.4127H38.6493C38.7372 11.2063 38.8587 10.8293 39.0139 10.2767C39.2401 9.10652 39.1242 8.01483 38.6774 6.99479C38.225 5.97815 37.4492 5.15768 36.3538 4.54361V4.54531ZM34.7069 9.11505H29.6579L27.3661 10.9948C27.3661 10.9948 27.4184 10.4438 27.4446 10.2886C27.553 9.6626 27.854 9.11505 27.854 9.11505C28.1662 8.3901 28.6765 7.81526 29.385 7.38882C30.0934 6.95897 30.9159 6.74745 31.8525 6.74745C32.5254 6.74745 33.0806 6.85491 33.5106 7.06643C33.9443 7.27965 34.2602 7.57304 34.4583 7.94489C34.6583 8.31675 34.7406 8.70737 34.7069 9.11505Z" fill="#3BBCB7"/>
<path d="M83.8897 4.07107H79.1678L78.2481 9.43057C78.0743 10.2596 77.764 10.9913 77.3116 11.6156C76.8536 12.2553 76.2947 12.7483 75.6367 13.0962C74.9787 13.4425 74.2889 13.6182 73.5617 13.6182C72.713 13.6182 72.1036 13.3777 71.7317 12.895C71.3578 12.4139 71.2494 11.7623 71.4064 10.9419L72.5747 4.07277H62.643L63.2561 0.497498L58.0669 2.73375L57.9192 4.07277H56.1789L55.6592 7.17384H57.3827L56.7153 11.0834C56.5247 12.1717 56.5882 13.1252 56.9079 13.9355C57.2275 14.7491 57.7977 15.3734 58.609 15.8067C59.4221 16.24 60.4372 16.4583 61.6485 16.4583H63.1795L63.7777 12.953H63.258C62.7215 12.953 62.3102 12.8967 62.0261 12.7858C61.7401 12.6766 61.5494 12.4856 61.4541 12.2195C61.3569 11.9483 61.3532 11.5781 61.4391 11.1056L62.1121 7.17214H67.3163L66.6041 11.3188C66.2938 13.1201 66.5237 14.5018 67.2939 15.4638C68.0622 16.4276 69.3146 16.9103 71.0456 16.9103C72.3579 16.9103 73.6178 16.6101 74.8198 16.0097C75.833 15.5031 76.7153 14.831 77.463 13.9952L77.0405 16.4447C78.25 15.2626 79.9548 14.0583 82.3588 12.9803L83.8897 4.07277V4.07107Z" fill="#3BBCB7"/>
<path d="M99.6421 6.87879C99.2701 5.86216 98.642 5.06387 97.7597 4.48561C96.8774 3.91077 95.838 3.6225 94.6454 3.6225C93.4527 3.6225 92.2134 3.9193 91.0899 4.5112C90.2319 4.96152 89.4748 5.53636 88.8187 6.23743L89.1944 4.07282H84.4949L83.0163 12.6937C84.0856 12.2468 85.2857 11.8272 86.6297 11.4417C87.0653 11.3172 87.5139 11.1944 87.9794 11.0818C89.1178 10.7935 90.3478 10.5342 91.6806 10.3057H91.6956L88.6056 7.4724V7.46387L97.2699 8.61014L90.6675 14.1931L91.6526 10.4131C90.7404 10.6929 89.3085 11.2217 87.798 12.1274C87.4485 12.3372 87.0896 12.5692 86.7381 12.8234C84.708 14.2716 82.7228 16.4413 81.8255 19.6328L81.4629 21.7428H86.1343L87.3831 14.5377C87.7364 15.1279 88.2112 15.6242 88.8075 16.02C89.6898 16.6119 90.746 16.9104 91.9741 16.9104C93.2023 16.9104 94.3575 16.6119 95.4903 16.02C96.6231 15.4298 97.5877 14.6264 98.384 13.6183C99.1822 12.6067 99.6832 11.4929 99.8907 10.2784C100.098 9.03146 100.016 7.89543 99.644 6.87879H99.6421Z" fill="#3BBCB7"/>
<path d="M52.9813 4.54531C51.8802 3.92953 50.5306 3.6225 48.9173 3.6225C47.3041 3.6225 45.8685 3.92101 44.545 4.52143C43.2234 5.12186 42.1336 5.92698 41.2905 6.9385C40.4418 7.9466 39.9053 9.05193 39.681 10.2528C39.4361 11.5492 39.5595 12.6971 40.0436 13.7001C40.5278 14.7048 41.3372 15.4895 42.47 16.0558C43.6028 16.6221 44.9992 16.9104 46.6611 16.9104C48.0967 16.9104 49.4651 16.6682 50.7624 16.1871C52.0578 15.7044 53.1663 15.0682 54.0842 14.2818L51.0446 12.4805C50.6465 12.8438 50.1137 13.1475 49.4389 13.3897C48.7622 13.637 48.0631 13.7581 47.3359 13.7581C46.2965 13.7581 45.4703 13.5398 44.8572 13.1065C44.244 12.6733 43.9524 12.1087 43.9898 11.4127H55.2768C55.3646 11.2063 55.4862 10.8293 55.6413 10.2767C55.8656 9.10652 55.7516 8.01483 55.3048 6.99479C54.8525 5.97815 54.0767 5.15768 52.9813 4.54361V4.54531ZM51.3325 9.11505H46.2853L43.9954 10.9948C43.9954 10.9948 44.0477 10.4438 44.072 10.2886C44.1805 9.6626 44.4814 9.11505 44.4814 9.11505C44.7917 8.3901 45.3039 7.81526 46.0124 7.38882C46.7209 6.95897 47.5434 6.74745 48.4799 6.74745C49.1529 6.74745 49.7081 6.85491 50.138 7.06643C50.5717 7.27965 50.8876 7.57304 51.0858 7.94489C51.2858 8.31675 51.3662 8.70737 51.3325 9.11505Z" fill="#3BBCB7"/>
</svg>
