<svg width="184" height="59" viewBox="0 0 184 59" fill="none" xmlns="http://www.w3.org/2000/svg">
<path d="M0 44.2422V46.151H5.33793V58.0307H7.48411V46.151H12.822V44.2422H0Z" fill="white"/>
<path d="M30.69 53.0849C32.6023 52.397 33.4105 50.8011 33.4105 48.851C33.4105 46.2474 31.9522 44.2422 28.3099 44.2422H20.8052V58.0307H22.9514V53.4598H28.3099C28.4647 53.4598 28.6023 53.4598 28.7433 53.4391L31.3056 58.0307H33.4931L30.6969 53.0849H30.69ZM27.9729 51.5509H22.9479V46.151H27.9729C30.0812 46.151 31.2816 46.8596 31.2816 48.851C31.2816 50.8424 30.0812 51.5509 27.9729 51.5509Z" fill="white"/>
<path d="M49.0497 44.2422H46.7281L40.5991 58.0307H42.845L43.729 56.0187H52.0248L52.9087 58.0307H55.1546L49.0463 44.2422H49.0497ZM44.5028 54.268L47.8906 46.5844L51.2543 54.268H44.4994H44.5028Z" fill="white"/>
<path d="M71.4146 44.2422L66.3896 55.685L61.3475 44.2422H59.1016L65.2271 58.0307H67.5521L73.6605 44.2422H71.4146Z" fill="white"/>
<path d="M93.062 46.1304V44.2422H81.5366V58.0307H93.062V56.139H83.6862V52.1012H92.6459V50.3884H83.6862V46.1304H93.062Z" fill="white"/>
<path d="M103.289 56.1184V44.2422H101.143V58.0307H112.369V56.1184H103.285H103.289Z" fill="white"/>
<path d="M32.4817 0L21.259 19.4291L16.6743 0H5.31052L0.0620117 33.1867H8.12738L11.6149 10.9304L15.7697 33.1867H21.9778L33.9606 11.0748L30.4765 33.1867H38.5969L43.8454 0H32.4817Z" fill="white"/>
<path d="M66.8903 9.16442C64.8645 7.9228 62.3813 7.30371 59.4165 7.30371C56.4518 7.30371 53.8034 7.9056 51.3684 9.11627C48.9367 10.3269 46.9384 11.9503 45.3804 13.9899C43.8189 16.0226 42.8318 18.2513 42.4191 20.6726C41.9685 23.2866 42.1955 25.6013 43.0863 27.6236C43.9771 29.6494 45.4664 31.2315 47.5506 32.3734C49.6349 33.5153 52.2041 34.0966 55.2617 34.0966C57.9032 34.0966 60.4208 33.6082 62.8078 32.6383C65.1913 31.6649 67.2308 30.382 68.9196 28.7965L63.334 25.1645C62.6014 25.8971 61.6143 26.5093 60.3727 26.9977C59.1276 27.4964 57.8413 27.7406 56.5034 27.7406C54.5911 27.7406 53.0709 27.3003 51.9427 26.4267C50.8146 25.5531 50.2781 24.4147 50.3469 23.0114H71.1139C71.2755 22.5952 71.4991 21.8351 71.7846 20.7208C72.2007 18.3614 71.9875 16.1601 71.1655 14.1034C70.3332 12.0535 68.9058 10.3992 66.8903 9.16098V9.16442ZM63.8602 18.3785H54.5704L50.3537 22.1688C50.3537 22.1688 50.45 21.0578 50.4982 20.7448C50.6977 19.4826 51.2514 18.3785 51.2514 18.3785C51.8258 16.9168 52.7647 15.7577 54.0683 14.8979C55.3718 14.0312 56.8851 13.6047 58.6083 13.6047C59.8465 13.6047 60.868 13.8214 61.659 14.2478C62.457 14.6778 63.0382 15.2693 63.4028 16.0191C63.7708 16.7689 63.9221 17.5565 63.8602 18.3785Z" fill="white"/>
<path d="M154.347 8.21187H145.66L143.967 19.0184C143.647 20.69 143.077 22.1655 142.244 23.4243C141.402 24.7141 140.373 25.708 139.163 26.4097C137.952 27.1079 136.683 27.4621 135.345 27.4621C133.783 27.4621 132.662 26.9772 131.978 26.0038C131.29 25.0339 131.09 23.7201 131.379 22.0657L133.529 8.21531H115.255L116.383 1.00635L106.836 5.51539L106.564 8.21531H103.362L102.406 14.4681H105.577L104.349 22.3512C103.998 24.5455 104.115 26.4682 104.703 28.1019C105.291 29.7425 106.34 31.0013 107.833 31.8749C109.329 32.7485 111.197 33.1887 113.426 33.1887H116.242L117.343 26.1208H116.387C115.4 26.1208 114.643 26.0073 114.12 25.7837C113.594 25.5636 113.243 25.1784 113.068 24.6418C112.889 24.095 112.882 23.3486 113.04 22.3959L114.279 14.4647H123.854L122.543 22.8258C121.972 26.4578 122.395 29.2437 123.813 31.1836C125.226 33.1268 127.531 34.1002 130.715 34.1002C133.13 34.1002 135.448 33.4948 137.66 32.2842C139.524 31.2627 141.147 29.9075 142.523 28.2222L141.746 33.1612C143.971 30.7777 147.108 28.3495 151.531 26.1758L154.347 8.21531V8.21187Z" fill="white"/>
<path d="M183.338 13.8695C182.653 11.8196 181.498 10.21 179.874 9.04404C178.251 7.88497 176.339 7.30371 174.144 7.30371C171.95 7.30371 169.67 7.90216 167.603 9.09563C166.024 10.0036 164.631 11.1627 163.424 12.5763L164.115 8.21171H155.468L152.748 25.5944C154.715 24.6933 156.923 23.8472 159.396 23.0699C160.197 22.8188 161.023 22.5712 161.879 22.3442C163.974 21.7629 166.237 21.2401 168.689 20.7792H168.717L163.032 15.0664V15.0492L178.973 17.3605L166.825 28.6176L168.638 20.9959C166.959 21.56 164.325 22.6262 161.546 24.4525C160.903 24.8756 160.242 25.3433 159.596 25.8558C155.86 28.7758 152.208 33.1507 150.557 39.5858L149.89 43.8403H158.485L160.782 29.3124C161.432 30.5024 162.306 31.5033 163.403 32.3012C165.026 33.4947 166.97 34.0966 169.229 34.0966C171.489 34.0966 173.615 33.4947 175.699 32.3012C177.783 31.1112 179.558 29.4912 181.023 27.4585C182.492 25.419 183.413 23.1731 183.795 20.7242C184.177 18.21 184.026 15.9194 183.341 13.8695H183.338Z" fill="white"/>
<path d="M97.4855 9.16442C95.4597 7.9228 92.9765 7.30371 90.0083 7.30371C87.0401 7.30371 84.3987 7.9056 81.9636 9.11627C79.5319 10.3269 77.5268 11.9503 75.9756 13.9899C74.4141 16.0226 73.427 18.2513 73.0143 20.6726C72.5637 23.2866 72.7907 25.6013 73.6815 27.6236C74.5723 29.6494 76.0616 31.2315 78.1458 32.3734C80.2301 33.5153 82.7993 34.0966 85.857 34.0966C88.4984 34.0966 91.016 33.6082 93.403 32.6383C95.7865 31.6649 97.826 30.382 99.5148 28.7965L93.9223 25.1645C93.1897 25.8971 92.2095 26.5093 90.9679 26.9977C89.7228 27.4964 88.4365 27.7406 87.0986 27.7406C85.1863 27.7406 83.6661 27.3003 82.538 26.4267C81.4098 25.5531 80.8733 24.4147 80.9421 23.0114H101.709C101.871 22.5952 102.094 21.8351 102.38 20.7208C102.793 18.3614 102.583 16.1601 101.761 14.1034C100.928 12.0535 99.501 10.3992 97.4855 9.16098V9.16442ZM94.452 18.3785H85.1656L80.9524 22.1688C80.9524 22.1688 81.0487 21.0578 81.0934 20.7448C81.2929 19.4826 81.8466 18.3785 81.8466 18.3785C82.4176 16.9168 83.36 15.7577 84.6635 14.8979C85.967 14.0312 87.4803 13.6047 89.2035 13.6047C90.4417 13.6047 91.4632 13.8214 92.2542 14.2478C93.0522 14.6778 93.6334 15.2693 93.998 16.0191C94.366 16.7689 94.5139 17.5565 94.452 18.3785Z" fill="white"/>
</svg>
