<svg preserveAspectRatio="none" width="100%" height="100%" overflow="visible" style="display: block;" viewBox="0 0 33.8312 11.4714" fill="none" xmlns="http://www.w3.org/2000/svg">
<path id="Amex" fill-rule="evenodd" clip-rule="evenodd" d="M6.55539 11.4714V6.50619H12.1817L12.7854 7.24149L13.409 6.50619H33.8312V11.129C33.8312 11.129 33.2972 11.4665 32.6795 11.4714H21.3713L20.6907 10.6887V11.4714H18.4604V10.1353C18.4604 10.1353 18.1558 10.3218 17.4971 10.3218H16.738V11.4714H13.3613L12.7585 10.7204L12.1464 11.4714H6.55539ZM0 2.76391L1.26589 0H3.4551L4.17351 1.54823V0H6.89491L7.32258 1.11901L7.73718 0H19.9534V0.562565C19.9534 0.562565 20.5956 0 21.6511 0L25.6148 0.0129736L26.3208 1.54094V0H28.5982L29.225 0.877693V0H31.5233V4.96525H29.225L28.6243 4.08471V4.96525H25.2783L24.9418 4.18255H24.0423L23.7113 4.96525H21.4421C20.534 4.96525 19.9534 4.41417 19.9534 4.41417V4.96525H16.5321L15.8531 4.18255V4.96525H3.13078L2.79453 4.18255H1.89787L1.56399 4.96525H0L0 2.76391ZM0.00652936 4.32993L1.71393 0.612108H3.00836L4.71413 4.32993H3.57804L3.26464 3.58545H1.43317L1.11814 4.32993H0.00652936ZM2.90389 2.77829L2.34564 1.47736L1.78576 2.77829H2.90389ZM4.83166 4.3293V0.611481L6.41132 0.616976L7.3301 3.01399L8.22688 0.611481H9.7939V4.3293H8.80146V1.58986L7.74944 4.3293H6.87906L5.82411 1.58986V4.3293H4.83166ZM10.4729 4.3293V0.611481H13.7115V1.4431H11.4758V2.07904H13.6592V2.86174H11.4758V3.52215H13.7115V4.3293H10.4729ZM14.286 4.32993V0.612108H16.4946C17.2264 0.612108 17.882 1.0359 17.882 1.81826C17.882 2.48707 17.3292 2.91785 16.7933 2.96021L18.0991 4.32993H16.8863L15.6964 3.00912H15.2785V4.32993H14.286ZM16.4129 1.44372H15.2785V2.22643H16.4276C16.6266 2.22643 16.8831 2.08207 16.8831 1.83507C16.8831 1.64309 16.6851 1.44372 16.4129 1.44372ZM19.3005 4.3293H18.2872V0.611481H19.3005V4.3293ZM21.7033 4.3293H21.4846C20.4262 4.3293 19.7837 3.54844 19.7837 2.48568C19.7837 1.39666 20.419 0.611481 21.7555 0.611481H22.8524V1.49202H21.7154C21.1729 1.49202 20.7892 1.88854 20.7892 2.49485C20.7892 3.21485 21.2279 3.51725 21.86 3.51725H22.1212L21.7033 4.3293ZM22.1554 4.32993L23.8628 0.612108H25.1573L26.863 4.32993H25.727L25.4135 3.58545H23.5821L23.267 4.32993H22.1554ZM25.0528 2.77829L24.4946 1.47736L23.9347 2.77829H25.0528ZM26.9789 4.3293V0.611481H28.2407L29.8518 2.94735V0.611481H30.8443V4.3293H29.6233L27.9714 1.93229V4.3293H26.9789ZM7.23443 10.8355V7.11767H10.4729V7.94929H8.23733V8.58523H10.4207V9.36793H8.23733V10.0283H10.4729V10.8355H7.23443ZM23.1032 10.8355V7.11767H26.3417V7.94929H24.1061V8.58523H26.279V9.36793H24.1061V10.0283H26.3417V10.8355H23.1032ZM10.5986 10.8355L12.1755 8.99951L10.5611 7.11767H11.8114L12.7729 8.28102L13.7376 7.11767H14.939L13.3458 8.97658L14.9255 10.8355H13.6754L12.7419 9.69049L11.831 10.8355H10.5986ZM15.0434 10.8361V7.1183H17.2356C18.1352 7.1183 18.6606 7.66124 18.6606 8.36878C18.6606 9.22288 17.9906 9.66207 17.1067 9.66207H16.062V10.8361H15.0434ZM17.1622 7.95909H16.062V8.81516H17.1589C17.4488 8.81516 17.6519 8.63525 17.6519 8.38713C17.6519 8.123 17.4478 7.95909 17.1622 7.95909ZM19.0916 10.8355V7.11767H21.3001C22.0319 7.11767 22.6876 7.54146 22.6876 8.32382C22.6876 8.99263 22.1348 9.42341 21.5988 9.46577L22.9047 10.8355H21.6919L20.5019 9.51469H20.084V10.8355H19.0916ZM21.2185 7.94929H20.084V8.73199H21.2332C21.4321 8.73199 21.6886 8.58763 21.6886 8.34064C21.6886 8.14865 21.4906 7.94929 21.2185 7.94929ZM26.8013 10.8355V10.0283H28.7875C29.0814 10.0283 29.2087 9.8796 29.2087 9.71648C29.2087 9.56019 29.0818 9.40218 28.7875 9.40218H27.89C27.1098 9.40218 26.6753 8.95701 26.6753 8.28866C26.6753 7.69254 27.0732 7.11767 28.2326 7.11767H30.1652L29.7474 7.95418H28.0759C27.7563 7.95418 27.658 8.1112 27.658 8.26115C27.658 8.41527 27.7795 8.58523 28.0236 8.58523H28.9638C29.8335 8.58523 30.2109 9.04725 30.2109 9.65227C30.2109 10.3027 29.7904 10.8355 28.9165 10.8355H26.8013ZM30.2984 10.8355V10.0283H32.2846C32.5785 10.0283 32.7058 9.8796 32.7058 9.71648C32.7058 9.56019 32.5789 9.40218 32.2846 9.40218H31.3871C30.6069 9.40218 30.1724 8.95701 30.1724 8.28866C30.1724 7.69254 30.5703 7.11767 31.7296 7.11767H33.6623L33.2444 7.95418H31.5729C31.2534 7.95418 31.1551 8.1112 31.1551 8.26115C31.1551 8.41527 31.2766 8.58523 31.5207 8.58523H32.4609C33.3306 8.58523 33.708 9.04725 33.708 9.65227C33.708 10.3027 33.2875 10.8355 32.4136 10.8355H30.2984Z" fill="var(--fill-0, white)"/>
</svg>
