<svg preserveAspectRatio="none" width="100%" height="100%" overflow="visible" style="display: block;" viewBox="0 0 27 10.9387" fill="none" xmlns="http://www.w3.org/2000/svg">
<g id="Layer_1" clip-path="url(#clip0_0_484)">
<path id="Vector" d="M9.37021 0.230999C9.36541 0.35137 9.32688 0.465343 9.30076 0.581315C8.96551 2.06962 8.62839 3.55739 8.2914 5.0453C8.0356 6.17463 7.77913 7.30382 7.52359 8.43328C7.37056 9.10912 7.21859 9.78535 7.0661 10.4613C7.06037 10.4865 7.0533 10.5113 7.04544 10.5417C7.01771 10.5253 7.01251 10.5004 7.00238 10.4801C6.56062 9.5958 6.11926 8.71121 5.67803 7.82663C5.24867 6.96577 4.82011 6.10464 4.38915 5.24459C4.36369 5.19366 4.37102 5.16594 4.40994 5.12755C5.05938 4.48704 5.70696 3.84479 6.35534 3.20335C6.74178 2.82091 7.12888 2.43913 7.51559 2.05696C7.91029 1.66705 8.30433 1.27661 8.69957 0.887241C8.92232 0.667827 9.14706 0.45028 9.37074 0.231933L9.37007 0.231133L9.37021 0.230999Z" fill="var(--fill-0, #489DD5)"/>
<path id="Vector_2" d="M0.14671 4.16544C3.15092 2.77684 6.14166 1.39451 9.13853 0.00924463C9.13387 0.0431031 9.11281 0.0533673 9.09841 0.0676305C8.63359 0.532051 8.16863 0.996206 7.70301 1.45983C7.12275 2.03782 6.54169 2.61501 5.9613 3.19287C5.38877 3.763 4.81625 4.33313 4.24492 4.90433C4.21306 4.93619 4.1848 4.94472 4.13988 4.93605C3.25236 4.76436 2.36444 4.5944 1.47652 4.42444C1.05222 4.34326 0.627793 4.26275 0.203496 4.1817C0.188433 4.17877 0.17377 4.1733 0.14671 4.16531V4.16544Z" fill="var(--fill-0, #94C740)"/>
<path id="Vector_3" d="M18.1982 3.60584C18.1982 3.0977 18.1993 2.58955 18.1967 2.08141C18.1965 2.02516 18.2113 2.01276 18.2661 2.01316C18.6524 2.01569 19.0387 2.01423 19.425 2.01463C20.1713 2.01543 20.7729 2.54463 20.8712 3.28472C20.9201 3.65343 20.9068 4.01668 20.7504 4.35966C20.5242 4.85607 20.13 5.13214 19.5904 5.19732C19.3254 5.22932 19.0583 5.20572 18.7921 5.20999C18.6145 5.21279 18.4368 5.20852 18.2593 5.21185C18.2098 5.21279 18.1966 5.20079 18.1969 5.15027C18.1989 4.63546 18.1981 4.12065 18.1981 3.60597L18.1982 3.60584ZM18.7711 3.61277C18.7711 3.93443 18.7723 4.25608 18.7698 4.57761C18.7694 4.62799 18.7827 4.64012 18.8322 4.63919C19.0273 4.63546 19.2228 4.63813 19.4179 4.63533C19.8062 4.62973 20.0896 4.42111 20.2073 4.05093C20.2884 3.79606 20.2922 3.53546 20.235 3.27605C20.1441 2.86362 19.9014 2.64314 19.4835 2.59635C19.2673 2.57222 19.0489 2.59222 18.8317 2.58595C18.7809 2.58449 18.7693 2.59835 18.7697 2.64794C18.7721 2.9696 18.7709 3.29125 18.7709 3.61277H18.7711Z" fill="var(--fill-0, #070808)"/>
<path id="Vector_4" d="M9.07234 0.13929C9.1158 0.0986327 9.15965 0.0583758 9.20258 0.0171857C9.21471 0.00558855 9.22777 0.000523108 9.24417 0.00118961C9.2619 0.00185612 9.27962 0.00118961 9.29749 0.00118961C15.1681 0.00118961 21.0386 0.00118961 26.9092 0.00118961C26.9672 0.00118961 26.9961 0.0308713 26.9961 0.0902347C26.9961 3.09271 26.9961 6.09531 26.9956 9.09779C26.9956 9.12538 27.0112 9.16297 26.9851 9.1791C26.9462 9.20296 26.9003 9.21603 26.8563 9.23082C26.8372 9.23722 26.8366 9.21976 26.8363 9.20643C26.836 9.1887 26.8363 9.17097 26.8363 9.15311C26.8363 6.18383 26.8363 3.21468 26.8362 0.245397C26.8362 0.145955 26.8495 0.157019 26.7477 0.157019C20.8837 0.156885 15.0198 0.156885 9.15592 0.156885C9.13193 0.156885 9.10807 0.156885 9.08407 0.156885L9.07247 0.139156L9.07234 0.13929Z" fill="var(--fill-0, #3A3A3A)"/>
<path id="Vector_5" d="M23.2801 2.80909C23.1313 2.72884 22.9865 2.65846 22.8334 2.6078C22.5578 2.51676 22.2799 2.48237 22.0004 2.58941C21.8368 2.65206 21.7692 2.78536 21.8157 2.94346C21.8397 3.0249 21.8957 3.07982 21.9674 3.12048C22.0775 3.183 22.1954 3.22792 22.315 3.26844C22.5392 3.34429 22.7647 3.41961 22.9785 3.51998C23.3072 3.67421 23.4952 3.93028 23.5024 4.30686C23.5076 4.57439 23.4417 4.81194 23.2442 5.00042C23.0909 5.14679 22.8963 5.21304 22.6939 5.24623C22.2687 5.31608 21.8496 5.28756 21.4438 5.13226C21.2695 5.06548 21.2681 5.06334 21.2835 4.88045C21.2975 4.71276 21.3168 4.5456 21.3344 4.37151C21.5435 4.55213 21.7829 4.64798 22.0469 4.6857C22.2188 4.71023 22.3916 4.71769 22.5628 4.67997C22.7011 4.64958 22.8215 4.59279 22.8558 4.43736C22.8927 4.26967 22.8168 4.1421 22.6938 4.04199C22.5989 3.96481 22.482 3.92335 22.3685 3.8791C22.1502 3.79392 21.9282 3.71714 21.713 3.62489C21.4537 3.51398 21.2708 3.3315 21.2308 3.03797C21.1658 2.56155 21.4757 2.10086 21.9473 1.99369C22.4117 1.88824 22.8586 1.96036 23.2853 2.16738C23.3224 2.18537 23.3406 2.20843 23.3352 2.25469C23.3147 2.43678 23.2987 2.61927 23.2802 2.80909H23.2801Z" fill="var(--fill-0, #080808)"/>
<path id="Vector_6" d="M23.9042 4.37307C24.2747 4.6646 24.6855 4.74978 25.1327 4.6766C25.2723 4.6538 25.3919 4.59075 25.4264 4.43559C25.4639 4.2679 25.3882 4.1402 25.2651 4.03982C25.1703 3.96264 25.0533 3.92105 24.94 3.87679C24.7216 3.79161 24.4998 3.71457 24.2843 3.62259C24.0249 3.51181 23.8421 3.32946 23.8015 3.03606C23.7356 2.56071 24.0457 2.09869 24.5173 1.99125C24.9817 1.88541 25.4285 1.95752 25.8552 2.16454C25.8919 2.18227 25.9114 2.20466 25.906 2.25145C25.8855 2.43368 25.8694 2.61643 25.851 2.80625C25.7026 2.7268 25.558 2.65602 25.4048 2.60537C25.1293 2.51419 24.8515 2.4798 24.5718 2.58657C24.408 2.64909 24.3403 2.78186 24.3864 2.94009C24.4101 3.02167 24.466 3.07672 24.5377 3.11751C24.6478 3.18016 24.7655 3.22508 24.8852 3.26561C25.1094 3.34146 25.3348 3.41704 25.5488 3.51701C25.8779 3.67098 26.0657 3.92705 26.0732 4.30349C26.0785 4.57102 26.0131 4.8087 25.8154 4.99732C25.6657 5.14009 25.4765 5.2058 25.2782 5.24006C24.8343 5.31684 24.3991 5.28419 23.9785 5.11503C23.8383 5.05864 23.8384 5.05557 23.8523 4.90521C23.8684 4.72885 23.8866 4.5525 23.9042 4.37294V4.37307Z" fill="var(--fill-0, #080808)"/>
<path id="Vector_7" d="M9.73759 3.60776C9.73759 3.09735 9.73759 2.58681 9.73772 2.0764C9.73772 2.04534 9.72586 2.01215 9.78304 2.01335C10.1935 2.02201 10.6044 1.99975 11.0146 2.02828C11.1791 2.03961 11.3389 2.07186 11.4924 2.13572C11.7183 2.22983 11.8584 2.39472 11.9095 2.6332C11.9669 2.9014 11.9701 3.17067 11.9001 3.43687C11.7966 3.83064 11.5216 4.04179 11.1386 4.13123C11.0521 4.15149 10.9638 4.15989 10.8744 4.15909C10.71 4.15749 10.5457 4.16096 10.3814 4.15736C10.324 4.15603 10.3033 4.16709 10.3041 4.23108C10.3081 4.53727 10.3047 4.84359 10.307 5.14979C10.3074 5.19844 10.2973 5.21324 10.2461 5.2119C10.0952 5.20791 9.94407 5.20857 9.79317 5.21164C9.74545 5.21257 9.73612 5.19751 9.73625 5.15232C9.73799 4.63738 9.73732 4.12257 9.73732 3.60763L9.73759 3.60776ZM10.306 3.05989C10.306 3.22852 10.306 3.39728 10.306 3.5659C10.306 3.59056 10.3013 3.61416 10.3408 3.61309C10.5491 3.60749 10.7584 3.62615 10.966 3.59763C11.1518 3.57203 11.2912 3.48472 11.3412 3.2913C11.3732 3.16747 11.3809 3.0411 11.3632 2.91499C11.326 2.65146 11.2111 2.54575 10.9464 2.51896C10.7469 2.49883 10.5471 2.51202 10.3476 2.50643C10.3088 2.50536 10.3055 2.52242 10.3056 2.55388C10.3068 2.72251 10.3061 2.89127 10.3061 3.05989H10.306Z" fill="var(--fill-0, #070707)"/>
<path id="Vector_8" d="M12.1891 3.62864C12.1921 3.19314 12.2876 2.80843 12.5563 2.48131C12.8423 2.13313 13.2142 1.96064 13.6629 1.94918C13.9678 1.94131 14.2638 1.9825 14.5453 2.10754C14.5926 2.1286 14.6096 2.14913 14.601 2.20511C14.5797 2.34521 14.5681 2.48678 14.5537 2.62794C14.5457 2.70686 14.5466 2.70713 14.4753 2.6798C14.2359 2.58809 13.9902 2.52504 13.732 2.52437C13.3043 2.52317 13.0137 2.72592 12.8866 3.13622C12.7704 3.512 12.7761 3.88884 12.952 4.24915C13.0994 4.55108 13.3529 4.69371 13.6843 4.70304C13.9634 4.71077 14.2291 4.64399 14.4865 4.54281C14.5401 4.52175 14.5485 4.53735 14.553 4.5852C14.5673 4.73517 14.5825 4.88527 14.6026 5.03456C14.6085 5.07829 14.5964 5.09735 14.5585 5.11428C14.2992 5.23052 14.0268 5.2769 13.7439 5.2793C13.454 5.2817 13.1788 5.22785 12.9309 5.07349C12.533 4.82581 12.308 4.4607 12.2225 4.00468C12.198 3.87351 12.1913 3.74088 12.1892 3.6289L12.1891 3.62864Z" fill="var(--fill-0, #080808)"/>
<path id="Vector_9" d="M4.93441 6.88969C4.6846 6.76572 4.43466 6.64242 4.18525 6.51778C2.80639 5.82861 1.42765 5.13918 0.0489215 4.44975C0.0314591 4.44108 0.0143965 4.43148 0 4.41189C0.102109 4.43108 0.204217 4.44975 0.306193 4.46947C1.31142 4.66409 2.31651 4.85885 3.3216 5.0536C3.55007 5.09786 3.77842 5.14251 4.0069 5.1865C4.04275 5.19343 4.06822 5.20556 4.08754 5.24275C4.36588 5.77929 4.64661 6.31463 4.92627 6.85036C4.93254 6.8625 4.94787 6.87463 4.93361 6.89116L4.93441 6.88956V6.88969Z" fill="var(--fill-0, #424242)"/>
<path id="Vector_10" d="M13.7479 10.5565C11.5652 10.5565 9.38238 10.5566 7.19971 10.555C7.16945 10.555 7.1156 10.5847 7.10866 10.5289C7.09813 10.4425 7.13746 10.3972 7.20651 10.3972C8.41448 10.3972 9.62246 10.3972 10.8303 10.3972C13.9878 10.3972 17.1453 10.3972 20.3028 10.3972C20.3161 10.3972 20.3295 10.398 20.3428 10.397C20.3747 10.3948 20.3969 10.3994 20.3812 10.4402C20.3775 10.4501 20.3787 10.4621 20.3785 10.4731C20.3776 10.5287 20.3479 10.5564 20.2893 10.5563C18.1088 10.5563 15.9283 10.5563 13.7479 10.5563V10.5565Z" fill="var(--fill-0, #393939)"/>
<path id="Vector_11" d="M15.0805 3.60564C15.0805 3.09536 15.0813 2.58508 15.0793 2.07494C15.0792 2.02549 15.0904 2.01202 15.1406 2.01322C15.2959 2.01696 15.4514 2.01576 15.6068 2.01362C15.6451 2.01309 15.6543 2.02455 15.6541 2.06188C15.6531 3.09576 15.6531 4.12951 15.6541 5.16339C15.6541 5.20112 15.6444 5.21178 15.6065 5.21138C15.4512 5.20925 15.2957 5.20805 15.1404 5.21192C15.0896 5.21312 15.0791 5.19899 15.0793 5.14993C15.0813 4.63526 15.0805 4.12058 15.0805 3.6059V3.60564Z" fill="var(--fill-0, #070707)"/>
<path id="Vector_12" d="M23.361 7.68668C23.361 7.36289 23.3618 7.03924 23.36 6.71545C23.3597 6.67426 23.3702 6.66053 23.4121 6.65573C23.7546 6.61681 24.0969 6.58961 24.4364 6.67439C24.8548 6.77877 25.1124 7.08469 25.1435 7.51486C25.1594 7.73387 25.1354 7.94795 25.0422 8.15057C24.8951 8.47049 24.6297 8.62992 24.2979 8.6987C24.0034 8.75976 23.7068 8.74096 23.4101 8.7219C23.3629 8.71883 23.3602 8.69551 23.3604 8.65805C23.3614 8.33426 23.361 8.0106 23.361 7.68682V7.68668ZM23.6408 7.68495C23.6408 7.93982 23.6419 8.19483 23.6399 8.4497C23.6395 8.49435 23.6507 8.51128 23.6975 8.51328C23.826 8.51861 23.9545 8.52568 24.0825 8.51168C24.4005 8.47689 24.6566 8.34612 24.783 8.0334C24.8522 7.86211 24.8669 7.68148 24.8431 7.49806C24.7994 7.16228 24.6125 6.95286 24.2826 6.87168C24.0881 6.82382 23.892 6.82969 23.6948 6.85382C23.6498 6.85928 23.6391 6.87608 23.6395 6.92007C23.6419 7.17494 23.6407 7.42994 23.6407 7.68482L23.6408 7.68495Z" fill="var(--fill-0, #090909)"/>
<path id="Vector_13" d="M16.3796 7.67922C16.3796 7.35996 16.3809 7.04057 16.3781 6.72132C16.3777 6.67253 16.3916 6.6592 16.4378 6.65427C16.7781 6.61707 17.1183 6.58975 17.4556 6.67453C17.8744 6.7797 18.1311 7.08536 18.1621 7.51566C18.1781 7.73707 18.1534 7.95355 18.0578 8.1575C17.9096 8.47356 17.645 8.63099 17.3157 8.69897C17.0213 8.75976 16.7247 8.74096 16.4279 8.72203C16.3796 8.71897 16.3789 8.6939 16.379 8.65738C16.38 8.33146 16.3796 8.00541 16.3796 7.67948V7.67922ZM16.6594 7.68068C16.6594 7.93782 16.6603 8.19496 16.6584 8.4521C16.6582 8.49329 16.6671 8.51102 16.7117 8.51302C16.8446 8.51901 16.9778 8.52648 17.11 8.51088C17.425 8.47369 17.6774 8.34146 17.8025 8.031C17.8641 7.8785 17.8796 7.71761 17.8689 7.55471C17.8448 7.1868 17.6386 6.94526 17.2795 6.86568C17.0912 6.82396 16.9013 6.82916 16.7109 6.85435C16.6702 6.85968 16.6579 6.87408 16.6583 6.9158C16.6604 7.17067 16.6594 7.42568 16.6594 7.68055V7.68068Z" fill="var(--fill-0, #090909)"/>
<path id="Vector_14" d="M13.7764 8.72768C13.6846 8.72768 13.5963 8.72595 13.5079 8.72848C13.4686 8.72954 13.4683 8.70182 13.4599 8.67796C13.3951 8.49467 13.3287 8.31178 13.2666 8.12756C13.2521 8.08437 13.2327 8.07117 13.1873 8.07184C12.972 8.07464 12.7567 8.07477 12.5415 8.07184C12.4943 8.07117 12.4768 8.08757 12.4629 8.12969C12.4024 8.31458 12.3375 8.49787 12.2766 8.68262C12.2649 8.71808 12.2495 8.73048 12.2115 8.72875C12.1322 8.72515 12.0528 8.72768 11.9673 8.72768C12.0465 8.50107 12.1233 8.28019 12.2007 8.05957C12.3595 7.60702 12.5195 7.15486 12.6764 6.70164C12.6935 6.65205 12.7142 6.63112 12.7691 6.63539C12.8442 6.64125 12.92 6.63858 12.9953 6.63605C13.0289 6.63485 13.0463 6.64405 13.058 6.67738C13.2937 7.34881 13.5305 8.01985 13.7672 8.69102C13.7708 8.70129 13.7725 8.71208 13.7762 8.72768H13.7764ZM12.5448 7.86002H13.1865C13.0803 7.5365 12.9514 7.22471 12.8635 6.89759C12.7777 7.22618 12.6496 7.53837 12.5448 7.86002Z" fill="var(--fill-0, #090A0A)"/>
<path id="Vector_15" d="M20.1217 8.72722C20.0275 8.72722 19.941 8.72509 19.8546 8.72815C19.8177 8.72949 19.8118 8.70803 19.8028 8.68217C19.7378 8.49648 19.6709 8.31159 19.608 8.12523C19.5944 8.08498 19.5768 8.07111 19.534 8.07151C19.3165 8.07378 19.0989 8.07391 18.8815 8.07151C18.8386 8.07098 18.8194 8.08458 18.8062 8.1247C18.7453 8.30946 18.6804 8.49288 18.6198 8.67763C18.6076 8.71496 18.5929 8.73042 18.5517 8.72842C18.4743 8.72456 18.3966 8.72735 18.3096 8.72735C18.345 8.62605 18.3784 8.5294 18.4123 8.43289C18.6157 7.85317 18.8197 7.27357 19.0219 6.69345C19.0361 6.65252 19.0516 6.63186 19.1 6.63519C19.1773 6.64039 19.2554 6.63906 19.3329 6.63559C19.373 6.63386 19.3902 6.64799 19.4031 6.68505C19.5993 7.24611 19.7969 7.80678 19.9943 8.36758C20.0359 8.48581 20.078 8.60392 20.1219 8.72735L20.1217 8.72722ZM19.5282 7.85956C19.4214 7.53324 19.2926 7.22279 19.2053 6.89606C19.1205 7.22452 18.9917 7.53644 18.8866 7.85956H19.5282Z" fill="var(--fill-0, #090A0A)"/>
<path id="Vector_16" d="M21.7888 7.67487C21.7888 7.34868 21.79 7.02262 21.7874 6.69643C21.787 6.64698 21.7984 6.63458 21.8486 6.63485C22.1993 6.63738 22.55 6.63698 22.9008 6.63512C22.9459 6.63485 22.9655 6.64431 22.9597 6.69257C22.953 6.74696 22.9829 6.81867 22.9485 6.85226C22.9142 6.88586 22.843 6.86159 22.7881 6.86199C22.5662 6.86319 22.3441 6.86373 22.1221 6.86146C22.0791 6.86106 22.0668 6.87186 22.0675 6.91572C22.07 7.10207 22.07 7.28843 22.0675 7.47478C22.067 7.51797 22.0782 7.52983 22.1219 7.52943C22.3638 7.52717 22.6058 7.53023 22.8477 7.5269C22.9021 7.5261 22.9122 7.54316 22.9113 7.59288C22.9085 7.75245 22.9105 7.75258 22.7483 7.75258C22.5396 7.75258 22.3309 7.75391 22.1223 7.75151C22.079 7.75098 22.0671 7.76218 22.0675 7.8059C22.0699 8.02105 22.07 8.23633 22.0675 8.45148C22.067 8.4948 22.081 8.50147 22.1199 8.5012C22.3951 8.4996 22.6704 8.50147 22.9457 8.4992C22.9929 8.4988 23.0161 8.5064 23.0087 8.55945C23.0011 8.6137 23.0325 8.68689 22.9958 8.71835C22.9649 8.74501 22.8941 8.72648 22.8409 8.72648C22.5102 8.72674 22.1793 8.72541 21.8486 8.72794C21.7982 8.72834 21.7872 8.71555 21.7876 8.66636C21.79 8.33577 21.7888 8.00519 21.7888 7.6746V7.67487Z" fill="var(--fill-0, #070808)"/>
<path id="Vector_17" d="M12.0942 6.63595C12.0215 6.83243 11.9511 7.02265 11.8807 7.21287C11.7014 7.69795 11.5214 8.18277 11.3438 8.66839C11.3278 8.71224 11.3088 8.73237 11.2596 8.72771C11.1765 8.71971 11.0724 8.75997 11.0148 8.71278C10.9608 8.66852 10.9543 8.56588 10.9281 8.48843C10.727 7.89391 10.526 7.29938 10.3251 6.70473C10.3181 6.68407 10.3116 6.66327 10.3028 6.63581C10.398 6.63581 10.4882 6.63768 10.5782 6.63488C10.6147 6.63381 10.6153 6.65887 10.6223 6.68033C10.7382 7.03318 10.8537 7.38616 10.9692 7.73914C11.0438 7.96736 11.1154 8.1965 11.1766 8.44684C11.2297 8.25329 11.2827 8.07786 11.3434 7.90497C11.4868 7.49627 11.6318 7.0881 11.775 6.67927C11.7861 6.64768 11.7991 6.63381 11.8348 6.63501C11.9187 6.63808 12.0027 6.63595 12.0942 6.63595Z" fill="var(--fill-0, #090A0A)"/>
<path id="Vector_18" d="M20.6027 7.78642C20.6027 7.49795 20.6017 7.20949 20.6038 6.92103C20.6042 6.87517 20.5934 6.86131 20.5458 6.86197C20.3639 6.86491 20.1816 6.86144 19.9997 6.86437C19.9517 6.86517 19.9385 6.85024 19.9425 6.80479C19.9473 6.75013 19.9257 6.67708 19.9536 6.64496C19.9832 6.61083 20.0582 6.6351 20.1131 6.6351C20.5705 6.6343 21.0278 6.63563 21.4852 6.63336C21.5372 6.6331 21.555 6.64576 21.5494 6.69815C21.5438 6.75053 21.5653 6.81958 21.5388 6.85211C21.5108 6.8865 21.4393 6.86197 21.3869 6.86264C21.2471 6.86424 21.1071 6.86651 20.9674 6.86171C20.9033 6.85944 20.8821 6.87224 20.8827 6.94289C20.8861 7.51542 20.8841 8.08781 20.8857 8.66034C20.8859 8.70953 20.8777 8.73259 20.8224 8.72606C20.7506 8.71752 20.6534 8.75645 20.6129 8.71099C20.5773 8.671 20.603 8.57596 20.6029 8.50531C20.6025 8.26563 20.6029 8.02596 20.6027 7.78642Z" fill="var(--fill-0, #070707)"/>
<path id="Vector_19" d="M14.1008 7.67707C14.1008 7.35089 14.1022 7.02483 14.0993 6.69864C14.0988 6.64399 14.116 6.63186 14.1655 6.63559C14.2185 6.63973 14.2723 6.64026 14.3252 6.63546C14.3744 6.63106 14.3818 6.65026 14.3816 6.69465C14.3802 7.27584 14.3815 7.85716 14.3792 8.43836C14.379 8.49234 14.3951 8.50234 14.4449 8.50194C14.7113 8.49954 14.9776 8.50167 15.2441 8.49981C15.2893 8.49954 15.3153 8.50407 15.3074 8.55886C15.2997 8.61285 15.3303 8.68576 15.2954 8.71722C15.2655 8.74428 15.1944 8.72682 15.1413 8.72682C14.8194 8.72722 14.4976 8.72562 14.1757 8.72829C14.1186 8.72882 14.0982 8.71896 14.099 8.65524C14.1029 8.32918 14.1008 8.003 14.1008 7.67694V7.67707Z" fill="var(--fill-0, #070707)"/>
<path id="Vector_20" d="M16.9191 4.15961C16.7064 4.15961 16.4935 4.15841 16.2807 4.16068C16.24 4.16108 16.2282 4.15121 16.2294 4.10975C16.2325 3.99458 16.2318 3.87941 16.2297 3.76424C16.229 3.72985 16.238 3.71945 16.2735 3.71958C16.7036 3.72078 17.1336 3.72078 17.5635 3.71958C17.5982 3.71958 17.6086 3.72865 17.6079 3.76357C17.6058 3.87874 17.6052 3.99405 17.6082 4.10909C17.6091 4.14935 17.5994 4.16121 17.5575 4.16068C17.3448 4.15828 17.132 4.15961 16.9191 4.15961Z" fill="var(--fill-0, #070707)"/>
<path id="Vector_21" d="M15.8999 7.68818C15.8999 8.01437 15.8987 8.34055 15.9012 8.66674C15.9016 8.7166 15.8897 8.73219 15.8396 8.72779C15.7846 8.723 15.7284 8.72366 15.6732 8.72779C15.629 8.73099 15.6189 8.71606 15.619 8.67314C15.6206 8.21605 15.6199 7.75896 15.6199 7.30187C15.6199 7.09779 15.6213 6.89357 15.6189 6.68949C15.6183 6.6459 15.6299 6.6323 15.6735 6.63523C15.731 6.6391 15.7891 6.63923 15.8465 6.63523C15.8908 6.63217 15.9009 6.64696 15.9008 6.68989C15.8989 7.02274 15.8997 7.35559 15.8997 7.68831L15.8999 7.68818Z" fill="var(--fill-0, #070707)"/>
<path id="Vector_22" d="M26.6334 10.8212C26.5064 10.5658 26.3796 10.3104 26.2519 10.0554C26.2411 10.0338 26.2438 10.0202 26.2607 10.0037C26.4965 9.7728 26.7318 9.54139 26.9675 9.31024C26.9702 9.30758 26.9752 9.30718 26.9912 9.30131C26.8758 9.81239 26.7618 10.3164 26.6478 10.8204C26.643 10.8207 26.6382 10.8209 26.6334 10.8213V10.8212Z" fill="var(--fill-0, #489DD5)"/>
<path id="Vector_23" d="M26.932 9.27356C26.9048 9.32022 26.8614 9.35221 26.8244 9.38954C26.635 9.57949 26.4441 9.76798 26.2544 9.9578C26.2313 9.98086 26.2107 9.99712 26.174 9.98966C25.99 9.95233 25.8057 9.91741 25.6215 9.88168C25.6233 9.86649 25.634 9.86302 25.6441 9.85836C26.0582 9.66707 26.4721 9.47565 26.8861 9.28463C26.8998 9.27836 26.9152 9.27583 26.9298 9.27156L26.932 9.2737V9.27356Z" fill="var(--fill-0, #94C740)"/>
<path id="Vector_24" d="M25.6819 10.7873C25.7209 10.6404 25.7598 10.4935 25.7989 10.3465C25.8074 10.3144 25.8205 10.2828 25.8238 10.2503C25.8292 10.1967 25.8661 10.1985 25.9002 10.2052C25.9494 10.2149 25.9137 10.2471 25.9086 10.2657C25.8538 10.4686 25.7957 10.6707 25.7416 10.8737C25.7309 10.9136 25.7137 10.9242 25.6739 10.9254C25.6325 10.9268 25.622 10.9082 25.6129 10.8748C25.5683 10.7104 25.5216 10.5466 25.475 10.3801C25.4446 10.3933 25.4479 10.4216 25.4421 10.4421C25.4001 10.5865 25.3589 10.7312 25.3206 10.8768C25.3109 10.9136 25.2958 10.9257 25.2576 10.9253C25.22 10.9249 25.2045 10.9145 25.1941 10.8772C25.1315 10.6543 25.0656 10.4324 25.0008 10.2103C25.0675 10.1903 25.0981 10.2092 25.1145 10.2769C25.1567 10.4509 25.2077 10.6227 25.2585 10.8072C25.313 10.617 25.3639 10.4381 25.4155 10.2595C25.4238 10.2311 25.4259 10.2023 25.4719 10.202C25.5186 10.2017 25.5207 10.2313 25.5284 10.2596C25.5763 10.4345 25.6233 10.6098 25.6705 10.7848L25.6821 10.7875L25.6819 10.7873Z" fill="var(--fill-0, #424242)"/>
<path id="Vector_25" d="M22.4972 10.5589C22.4996 10.8861 22.2339 10.9944 22.0173 10.9096C22.007 10.9056 21.9969 10.9009 21.9873 10.8954C21.8334 10.8079 21.7743 10.5791 21.8559 10.3862C21.9221 10.2295 22.0986 10.1526 22.2727 10.2044C22.4125 10.2461 22.4977 10.3806 22.4972 10.5587V10.5589ZM22.4099 10.5427C22.4081 10.5286 22.4061 10.4975 22.4002 10.4672C22.3788 10.3601 22.3084 10.2897 22.2081 10.2731C22.1002 10.2551 22.0008 10.2985 21.9507 10.3956C21.8909 10.5113 21.8912 10.6307 21.9568 10.7446C21.9982 10.8164 22.0642 10.854 22.1486 10.8563C22.3128 10.8605 22.4133 10.7464 22.4099 10.5427Z" fill="var(--fill-0, #3D3E3D)"/>
<path id="Vector_26" d="M24.9487 10.5604C24.9471 10.8453 24.7239 11.0099 24.4737 10.9108C24.4634 10.9068 24.4531 10.9027 24.4434 10.8975C24.2857 10.8118 24.2245 10.5796 24.3081 10.3847C24.375 10.2286 24.5528 10.1521 24.726 10.205C24.8654 10.2475 24.9498 10.3822 24.9489 10.5607L24.9487 10.5604ZM24.8616 10.5445C24.86 10.5311 24.858 10.5 24.8521 10.4697C24.8312 10.3599 24.7584 10.2875 24.6558 10.2722C24.5476 10.2561 24.4497 10.3011 24.4003 10.399C24.3429 10.5129 24.3434 10.6304 24.4069 10.7422C24.449 10.8166 24.5169 10.8551 24.6042 10.8562C24.7655 10.8583 24.8638 10.7461 24.8616 10.5447V10.5445Z" fill="var(--fill-0, #3D3E3D)"/>
<path id="Vector_27" d="M21.117 10.1812C20.8876 10.1075 20.7455 10.1332 20.6478 10.2665C20.5601 10.3859 20.5558 10.5941 20.6384 10.7126C20.7327 10.8477 20.8633 10.8707 21.1187 10.7976C21.1278 10.897 21.1274 10.8986 21.0361 10.9194C20.9666 10.9353 20.8957 10.9426 20.8249 10.9335C20.6352 10.9094 20.5091 10.7834 20.4802 10.5924C20.4442 10.3543 20.5467 10.1521 20.7451 10.0741C20.836 10.0384 20.9304 10.0352 21.0261 10.0524C21.1279 10.0708 21.131 10.0745 21.117 10.1812Z" fill="var(--fill-0, #3D3E3D)"/>
<path id="Vector_28" d="M24.0312 10.5385C24.148 10.5897 24.1875 10.6518 24.1724 10.751C24.1583 10.8446 24.0787 10.9162 23.9721 10.9238C23.9037 10.9286 23.8346 10.9238 23.7658 10.9252C23.7381 10.9259 23.733 10.9136 23.7332 10.8895C23.7338 10.6722 23.7337 10.455 23.7332 10.2377C23.7332 10.2166 23.7374 10.2042 23.7622 10.2054C23.8396 10.2091 23.9174 10.1977 23.9943 10.2119C24.0648 10.225 24.1193 10.2598 24.1336 10.3353C24.1481 10.4118 24.1249 10.4752 24.0584 10.52C24.0515 10.5247 24.0446 10.5295 24.0311 10.5387L24.0312 10.5385ZM23.905 10.8447C23.9358 10.8447 23.9667 10.8469 23.9968 10.8365C24.0562 10.8161 24.088 10.7753 24.0864 10.7124C24.084 10.6238 24.0223 10.5923 23.8738 10.5908C23.7766 10.5897 23.8313 10.66 23.8189 10.6978C23.813 10.7158 23.8178 10.7373 23.818 10.7571C23.818 10.8156 23.847 10.8448 23.9051 10.8447H23.905ZM23.8858 10.2846C23.8304 10.2697 23.8076 10.2986 23.817 10.3658C23.822 10.4004 23.8177 10.4364 23.8181 10.4719C23.8182 10.4847 23.8141 10.5059 23.8273 10.5075C23.8863 10.5147 23.947 10.5221 24.0007 10.4863C24.047 10.4554 24.0615 10.4094 24.046 10.3584C24.0239 10.2853 23.9601 10.2862 23.8857 10.2846H23.8858Z" fill="var(--fill-0, #3A3A3A)"/>
<path id="Vector_29" d="M21.7779 10.9176C21.7042 10.9404 21.6676 10.9111 21.6396 10.854C21.6124 10.7986 21.5776 10.7467 21.5446 10.6942C21.5244 10.6618 21.4984 10.6347 21.4603 10.6226C21.379 10.5969 21.3538 10.6149 21.3538 10.6985C21.3538 10.7606 21.352 10.8227 21.3544 10.8847C21.3558 10.9184 21.3419 10.9252 21.3116 10.9247C21.2832 10.9243 21.2679 10.9217 21.2682 10.8861C21.2698 10.6711 21.269 10.4561 21.2691 10.2411C21.2691 10.2239 21.265 10.2039 21.2934 10.2046C21.3752 10.2066 21.458 10.201 21.5388 10.2114C21.6353 10.2238 21.6865 10.2802 21.6971 10.364C21.7095 10.4613 21.6717 10.5308 21.5824 10.5744C21.5746 10.5781 21.5665 10.5809 21.5552 10.5854C21.6486 10.6838 21.7027 10.8048 21.7781 10.9173L21.7779 10.9176ZM21.3532 10.4103C21.3532 10.5492 21.3627 10.5576 21.4944 10.5368C21.567 10.5253 21.6156 10.469 21.613 10.3992C21.6106 10.3319 21.562 10.289 21.4832 10.2847C21.3966 10.28 21.3534 10.3218 21.3534 10.4103H21.3532Z" fill="var(--fill-0, #3A3A3A)"/>
<path id="Vector_30" d="M22.6148 10.8129C22.6829 10.8417 22.7523 10.8642 22.8267 10.8574C22.8788 10.8526 22.9307 10.8418 22.9477 10.7825C22.9657 10.7199 22.9364 10.6749 22.8834 10.6441C22.826 10.6108 22.7666 10.581 22.7098 10.547C22.6369 10.5032 22.5981 10.4399 22.6132 10.3526C22.6278 10.2674 22.6886 10.2272 22.7655 10.2049C22.8196 10.1893 22.8747 10.1877 22.93 10.1959C23.0171 10.2088 23.0171 10.2095 23.0107 10.3057C22.9504 10.2837 22.8896 10.2653 22.8256 10.2729C22.7683 10.2797 22.7131 10.2956 22.6998 10.3613C22.6871 10.4233 22.7263 10.4601 22.776 10.4877C22.8302 10.5176 22.8858 10.5452 22.9381 10.578C23.0136 10.6252 23.057 10.6921 23.0389 10.7845C23.0212 10.8752 22.9541 10.9133 22.8702 10.9307C22.8104 10.9431 22.7517 10.939 22.6925 10.9281C22.6025 10.9116 22.6018 10.9115 22.615 10.8132L22.6148 10.8129Z" fill="var(--fill-0, #3D3E3D)"/>
<path id="Vector_31" d="M23.1604 10.8132C23.2286 10.8416 23.298 10.8644 23.3724 10.8576C23.4245 10.8528 23.4764 10.842 23.4934 10.7827C23.5114 10.72 23.4821 10.6751 23.4292 10.6443C23.3719 10.611 23.3124 10.5811 23.2556 10.5471C23.1827 10.5036 23.1438 10.4402 23.1587 10.3528C23.1734 10.2676 23.234 10.2272 23.3109 10.205C23.3651 10.1892 23.4201 10.1878 23.4754 10.1959C23.5626 10.2088 23.5626 10.2094 23.5564 10.3056C23.4961 10.2837 23.4354 10.2652 23.3715 10.2728C23.3141 10.2796 23.259 10.2955 23.2455 10.3611C23.2328 10.4229 23.2719 10.4598 23.3216 10.4874C23.3757 10.5174 23.4312 10.5451 23.4837 10.5778C23.5591 10.625 23.6026 10.6918 23.5846 10.7842C23.5669 10.8749 23.5 10.9129 23.416 10.9305C23.3563 10.9429 23.2975 10.9389 23.2383 10.928C23.1479 10.9113 23.1475 10.9116 23.1606 10.8131L23.1604 10.8132Z" fill="var(--fill-0, #3D3E3D)"/>
<path id="Vector_32" d="M26.3209 10.2703C26.3153 10.2718 26.3084 10.2762 26.3044 10.2742C26.0692 10.1579 25.8343 10.0412 25.6025 9.91519C25.7909 9.95159 25.9792 9.98811 26.1677 10.0244C26.1885 10.0284 26.2027 10.0382 26.2125 10.0585C26.247 10.1298 26.2836 10.2002 26.3193 10.271L26.3209 10.2702V10.2703Z" fill="var(--fill-0, #424242)"/>
<path id="Vector_33" d="M26.9304 9.27167C26.9328 9.26889 26.9352 9.26623 26.9376 9.26345C26.9467 9.2723 26.9374 9.27192 26.9324 9.2737L26.9304 9.27167Z" fill="var(--fill-0, #94C740)"/>
<path id="Vector_34" d="M26.3194 10.2702C26.3208 10.273 26.3221 10.2758 26.3234 10.2786C26.3218 10.2782 26.3202 10.2778 26.3185 10.2774C26.3193 10.2748 26.32 10.2721 26.3208 10.2695L26.3193 10.2702H26.3194Z" fill="var(--fill-0, #424242)"/>
<path id="Vector_35" d="M4.93349 6.89082C4.93615 6.89019 4.93881 6.88968 4.94146 6.88905C4.94171 6.8907 4.94197 6.89247 4.94222 6.89411C4.93956 6.89247 4.93691 6.89095 4.93413 6.8893L4.93337 6.89082H4.93349Z" fill="var(--fill-0, #424242)"/>
<path id="Vector_36" d="M9.37129 0.229723C9.37249 0.22839 9.37383 0.226924 9.37502 0.225591C9.37356 0.226657 9.37209 0.227857 9.37049 0.228923L9.37116 0.229723H9.37129Z" fill="var(--fill-0, #489DD5)"/>
</g>
<defs>
<clipPath id="clip0_0_484">
<rect width="27" height="10.9387" fill="white"/>
</clipPath>
</defs>
</svg>
