<svg preserveAspectRatio="none" width="100%" height="100%" overflow="visible" style="display: block;" viewBox="0 0 18.9602 14.1998" fill="none" xmlns="http://www.w3.org/2000/svg">
<g id="JCB">
<path id="Vector" d="M14.2784 7.38732C14.7921 7.39849 15.3087 7.36464 15.8203 7.40491C16.3384 7.50157 16.4633 8.28595 16.003 8.54284C15.6889 8.71207 15.3158 8.60587 14.9753 8.63572H14.2784V7.38732V7.38732ZM16.1173 5.97431C16.2314 6.37713 15.8431 6.73882 15.4551 6.68334H14.2784C14.2866 6.30346 14.2622 5.89114 14.2903 5.53126C14.7617 5.54453 15.2375 5.50418 15.7062 5.55236C15.9075 5.60295 16.0761 5.7685 16.1173 5.97431V5.97431ZM18.9493 0.000471983C18.9711 0.769774 18.9524 1.57974 18.9587 2.36464C18.9572 5.55579 18.9618 8.74684 18.9562 11.9382C18.9355 13.1341 17.8756 14.1733 16.688 14.1972C15.4991 14.202 14.3101 14.1979 13.1211 14.1993V9.37491C14.4166 9.36823 15.7127 9.38849 17.0077 9.3648C17.6084 9.32708 18.2664 8.93072 18.2943 8.26964C18.3651 7.60571 17.7391 7.14648 17.1448 7.07395C16.9164 7.06802 16.923 7.00735 17.1448 6.98089C17.7116 6.85838 18.1567 6.27172 17.99 5.68419C17.8479 5.06623 17.1648 4.82706 16.5967 4.82825C15.4384 4.82038 14.2798 4.82715 13.1214 4.82486C13.1289 3.92421 13.1058 3.0226 13.1338 2.12261C13.2256 0.948241 14.3122 -0.0202322 15.4832 0.000779517C16.6387 0.000603687 17.794 0.000603808 18.9493 0.00055985V0.000471983Z" fill="url(#paint0_linear_0_542)"/>
<path id="Vector_2" d="M0.0308117 2.24442C0.0603952 1.05036 1.12483 0.0196855 2.31098 0.00223435C3.49542 -0.00141413 4.68003 0.00170705 5.86447 0.000652072C5.86121 3.99574 5.87088 7.99126 5.85959 11.9861C5.81396 13.1657 4.76113 14.1767 3.5879 14.1976C2.40122 14.2019 1.21441 14.1982 0.0276908 14.1994V9.2124C1.18039 9.48472 2.38918 9.60064 3.56513 9.42002C4.26806 9.30691 5.03714 8.96171 5.27513 8.23246C5.45025 7.60866 5.35166 6.95215 5.37772 6.31191V4.82504H3.34262C3.33348 5.80842 3.36135 6.79351 3.32789 7.77569C3.27303 8.37941 2.67517 8.76298 2.10579 8.7425C1.39965 8.74997 0.000348757 8.23074 0.000348757 8.23074C-0.00316785 6.3883 0.0208334 4.08093 0.0308117 2.2446V2.24442Z" fill="url(#paint1_linear_0_542)"/>
<path id="Vector_3" d="M6.62343 5.42459C6.5163 5.44731 6.60189 5.0597 6.5745 4.91266C6.5818 3.98296 6.55925 3.05224 6.58694 2.1232C6.67846 0.94386 7.77339 -0.0270309 8.94912 0.000574507H12.4115C12.4083 3.99566 12.4179 7.99118 12.4067 11.986C12.361 13.1656 11.3081 14.1766 10.1348 14.1975C8.94811 14.202 7.76126 14.1982 6.57446 14.1994V8.73543C7.38499 9.40047 8.4866 9.50398 9.49639 9.50579C10.2576 9.50552 11.0145 9.38816 11.7537 9.21259V8.21159C10.9206 8.62681 9.94123 8.89056 9.01769 8.652C8.37345 8.49164 7.90579 7.86903 7.91621 7.20417C7.84157 6.51276 8.24686 5.7828 8.92631 5.57725C9.76989 5.31316 10.6893 5.51514 11.48 5.85849C11.6495 5.9472 11.8214 6.05723 11.7537 5.77405V4.98725C10.4312 4.67261 9.02376 4.55682 7.69511 4.89912C7.31052 5.00761 6.93583 5.17214 6.62343 5.42468V5.42459Z" fill="url(#paint2_linear_0_542)"/>
</g>
<defs>
<linearGradient id="paint0_linear_0_542" x1="13.0813" y1="6.79628" x2="18.9219" y2="6.79628" gradientUnits="userSpaceOnUse">
<stop stop-color="#58B03A"/>
<stop offset="1" stop-color="#55B330"/>
</linearGradient>
<linearGradient id="paint1_linear_0_542" x1="-0.0964942" y1="7.23599" x2="5.76877" y2="7.23599" gradientUnits="userSpaceOnUse">
<stop stop-color="#0F6EB6"/>
<stop offset="1" stop-color="#006DBA"/>
</linearGradient>
<linearGradient id="paint2_linear_0_542" x1="6.5659" y1="6.93393" x2="12.4105" y2="6.93393" gradientUnits="userSpaceOnUse">
<stop stop-color="#DE0D3D"/>
<stop offset="1" stop-color="#E30138"/>
</linearGradient>
</defs>
</svg>
