<svg preserveAspectRatio="none" width="100%" height="100%" overflow="visible" style="display: block;" viewBox="0 0 22.5 13.806" fill="none" xmlns="http://www.w3.org/2000/svg">
<g id="Mastercard">
<path id="Left" fill-rule="evenodd" clip-rule="evenodd" d="M11.25 12.1569C10.0584 13.1852 8.51276 13.806 6.82377 13.806C3.05511 13.806 0 10.7154 0 6.90299C0 3.09057 3.05511 0 6.82377 0C8.51276 0 10.0584 0.620752 11.25 1.64903C12.4416 0.620752 13.9872 0 15.6762 0C19.4449 0 22.5 3.09057 22.5 6.90299C22.5 10.7154 19.4449 13.806 15.6762 13.806C13.9872 13.806 12.4416 13.1852 11.25 12.1569Z" fill="var(--fill-0, #ED0006)"/>
<path id="Right" fill-rule="evenodd" clip-rule="evenodd" d="M11.25 12.1569C12.7172 10.8908 13.6475 9.0068 13.6475 6.90299C13.6475 4.79917 12.7172 2.91517 11.25 1.64903C12.4416 0.620752 13.9872 0 15.6762 0C19.4449 0 22.5 3.09057 22.5 6.90299C22.5 10.7154 19.4449 13.806 15.6762 13.806C13.9872 13.806 12.4416 13.1852 11.25 12.1569Z" fill="var(--fill-0, #F9A000)"/>
<path id="Middle" fill-rule="evenodd" clip-rule="evenodd" d="M11.25 1.64907C12.7172 2.91521 13.6475 4.7992 13.6475 6.903C13.6475 9.0068 12.7172 10.8908 11.25 12.1569C9.78284 10.8908 8.85251 9.0068 8.85251 6.903C8.85251 4.7992 9.78284 2.91521 11.25 1.64907Z" fill="var(--fill-0, #FF5E00)"/>
</g>
</svg>
