<svg preserveAspectRatio="none" width="100%" height="100%" overflow="visible" style="display: block;" viewBox="0 0 19.9999 17.4171" fill="none" xmlns="http://www.w3.org/2000/svg">
<g id="PayPal">
<path id="Vector" fill-rule="evenodd" clip-rule="evenodd" d="M2.40001 12.0878H0.844392C0.737939 12.0878 0.647402 12.1652 0.630802 12.2702L0.00163188 16.2593C-0.0108734 16.338 0.0500852 16.409 0.129927 16.409H0.872593C0.979045 16.409 1.06958 16.3316 1.08618 16.2263L1.25588 15.1504C1.27225 15.0451 1.363 14.9678 1.46924 14.9678H1.96169C2.98643 14.9678 3.5778 14.4719 3.73233 13.4893C3.8019 13.0594 3.73527 12.7216 3.5339 12.485C3.31285 12.2253 2.92064 12.0878 2.40001 12.0878ZM2.57948 13.5447C2.49443 14.103 2.06792 14.103 1.65553 14.103H1.42078L1.58547 13.0604C1.59525 12.9975 1.64984 12.9511 1.71353 12.9511H1.82112C2.10204 12.9511 2.36706 12.9511 2.50401 13.1112C2.58559 13.2067 2.61064 13.3486 2.57948 13.5447ZM7.05012 13.5269H6.30517C6.2417 13.5269 6.18686 13.5733 6.17707 13.6363L6.14412 13.8446L6.09202 13.7692C5.93075 13.5351 5.57117 13.4569 5.21222 13.4569C4.38896 13.4569 3.6859 14.0803 3.54896 14.955C3.4778 15.3912 3.57896 15.8083 3.82643 16.0993C4.05348 16.3668 4.37833 16.4782 4.76475 16.4782C5.42801 16.4782 5.79591 16.0517 5.79591 16.0517L5.76265 16.2588C5.75012 16.3379 5.81107 16.4089 5.89044 16.4089H6.56149C6.66823 16.4089 6.75823 16.3315 6.77507 16.2262L7.1777 13.6765C7.19044 13.5981 7.1297 13.5269 7.05012 13.5269ZM6.0117 14.9768C5.9398 15.4023 5.60201 15.688 5.17128 15.688C4.95496 15.688 4.78201 15.6186 4.67106 15.4872C4.56096 15.3566 4.51906 15.1708 4.55412 14.9638C4.62127 14.5418 4.96475 14.2469 5.38896 14.2469C5.60044 14.2469 5.77244 14.3171 5.8857 14.4497C5.99917 14.5837 6.04423 14.7706 6.0117 14.9768ZM10.269 13.5268H11.0176C11.1224 13.5268 11.1836 13.6443 11.124 13.7303L8.63423 17.3242C8.59392 17.3824 8.5275 17.4171 8.45655 17.4171H7.70886C7.6036 17.4171 7.54212 17.2985 7.60307 17.2123L8.37834 16.118L7.55381 13.6982C7.52528 13.6141 7.58739 13.5268 7.67686 13.5268H8.41244C8.50802 13.5268 8.59234 13.5895 8.61992 13.681L9.0575 15.1424L10.09 13.6216C10.1304 13.5622 10.1976 13.5268 10.269 13.5268Z" fill="var(--fill-0, #253B80)"/>
<path id="Vector_2" fill-rule="evenodd" clip-rule="evenodd" d="M18.3855 16.2593L19.0239 12.1973C19.0337 12.1342 19.0883 12.0878 19.1518 12.0876H19.8705C19.9499 12.0876 20.0108 12.1587 19.9983 12.2375L19.3687 16.2263C19.3523 16.3316 19.2618 16.4089 19.1551 16.4089H18.5132C18.4339 16.4089 18.3729 16.338 18.3855 16.2593ZM13.4961 12.0878H11.9402C11.834 12.0878 11.7434 12.1651 11.7268 12.2702L11.0976 16.2593C11.0851 16.338 11.1461 16.4089 11.2255 16.4089H12.0239C12.0981 16.4089 12.1615 16.3548 12.1731 16.2812L12.3516 15.1504C12.3681 15.0451 12.4588 14.9678 12.565 14.9678H13.0572C14.0822 14.9678 14.6734 14.4719 14.8281 13.4893C14.8979 13.0594 14.8308 12.7216 14.6295 12.4849C14.4086 12.2253 14.0167 12.0878 13.4961 12.0878ZM13.6755 13.5447C13.5907 14.1029 13.1642 14.1029 12.7515 14.1029H12.517L12.682 13.0604C12.6918 12.9975 12.7459 12.951 12.8098 12.951H12.9173C13.1981 12.951 13.4633 12.951 13.6002 13.1112C13.6819 13.2067 13.7067 13.3486 13.6755 13.5447ZM18.1458 13.5268H17.4013C17.3373 13.5268 17.283 13.5733 17.2734 13.6363L17.2405 13.8446L17.1882 13.7692C17.0269 13.535 16.6676 13.4568 16.3086 13.4568C15.4853 13.4568 14.7825 14.0803 14.6455 14.9549C14.5746 15.3912 14.6753 15.8083 14.9228 16.0993C15.1503 16.3667 15.4747 16.4782 15.8611 16.4782C16.5244 16.4782 16.8922 16.0517 16.8922 16.0517L16.859 16.2587C16.8465 16.3379 16.9074 16.4088 16.9873 16.4088H17.6581C17.7643 16.4088 17.8548 16.3315 17.8714 16.2262L18.2743 13.6765C18.2866 13.5981 18.2257 13.5268 18.1458 13.5268ZM17.1074 14.9767C17.036 15.4023 16.6978 15.688 16.2669 15.688C16.051 15.688 15.8778 15.6186 15.7667 15.4872C15.6566 15.3566 15.6152 15.1707 15.6499 14.9638C15.7173 14.5418 16.0604 14.2468 16.4846 14.2468C16.6962 14.2468 16.8681 14.317 16.9814 14.4497C17.0953 14.5837 17.1404 14.7706 17.1074 14.9767Z" fill="var(--fill-0, #179BD7)"/>
<path id="Vector_3" d="M8.15701 10.6607L8.34828 9.44598L7.92228 9.43608H5.88806L7.30175 0.472253C7.30607 0.445189 7.32038 0.419958 7.34122 0.402042C7.36206 0.384126 7.3888 0.374252 7.41659 0.374252H10.8466C11.9853 0.374252 12.7711 0.611211 13.1814 1.07891C13.3738 1.29832 13.4963 1.52759 13.5556 1.77991C13.6177 2.04467 13.6188 2.36097 13.5581 2.74676L13.5537 2.77492V3.02211L13.7461 3.13109C13.9081 3.21702 14.0367 3.31539 14.1354 3.42802C14.3001 3.61561 14.4065 3.85403 14.4515 4.13669C14.4979 4.42741 14.4825 4.77334 14.4065 5.16498C14.3187 5.6155 14.1768 6.00787 13.9852 6.32893C13.8089 6.62476 13.5844 6.87008 13.3179 7.06029C13.0633 7.24092 12.7609 7.37808 12.419 7.46587C12.0877 7.55208 11.71 7.59566 11.2957 7.59566H11.0287C10.8379 7.59566 10.6524 7.6644 10.5069 7.78766C10.361 7.91345 10.2644 8.08524 10.2348 8.27324L10.2147 8.38261L9.87681 10.5236L9.86144 10.6022C9.85744 10.6271 9.85049 10.6396 9.84028 10.648C9.83112 10.6556 9.81796 10.6607 9.80512 10.6607H8.15701Z" fill="var(--fill-0, #253B80)"/>
<path id="Vector_4" d="M13.9282 2.80357C13.918 2.86903 13.9063 2.93594 13.8931 3.00469C13.4407 5.32711 11.8932 6.1294 9.91671 6.1294H8.91039C8.6687 6.1294 8.46502 6.30492 8.42733 6.54334L7.91207 9.81106L7.76617 10.7373C7.74165 10.8938 7.86239 11.035 8.02028 11.035H9.80523C10.0166 11.035 10.1961 10.8814 10.2293 10.673L10.2469 10.5822L10.583 8.44959L10.6046 8.33264C10.6374 8.12348 10.8173 7.9699 11.0287 7.9699H11.2957C13.0249 7.9699 14.3787 7.26779 14.7744 5.23605C14.9397 4.38731 14.8541 3.67864 14.4167 3.18022C14.2844 3.02992 14.1202 2.90523 13.9282 2.80357Z" fill="var(--fill-0, #179BD7)"/>
<path id="Vector_5" d="M13.4548 2.61504C13.3858 2.59493 13.3144 2.57664 13.2412 2.56019C13.1678 2.5441 13.0924 2.52984 13.0149 2.51741C12.7436 2.47352 12.4463 2.45268 12.1278 2.45268H9.43934C9.37313 2.45268 9.31028 2.46767 9.25397 2.49474C9.12997 2.55434 9.03786 2.67173 9.01555 2.81543L8.44355 6.43783L8.42712 6.5435C8.46481 6.30508 8.66849 6.12955 8.91018 6.12955H9.9165C11.893 6.12955 13.4406 5.3269 13.8929 3.00485C13.9064 2.9361 13.9178 2.86919 13.928 2.80374C13.8136 2.74303 13.6896 2.6911 13.5561 2.64685C13.5232 2.63588 13.4892 2.62528 13.4548 2.61504Z" fill="var(--fill-0, #222D65)"/>
<path id="Vector_6" d="M9.01557 2.81534C9.03788 2.67163 9.13009 2.55425 9.25399 2.49501C9.31073 2.46794 9.37325 2.45295 9.43936 2.45295H12.1279C12.4464 2.45295 12.7437 2.4738 13.0149 2.51768C13.0925 2.53011 13.1679 2.54437 13.2414 2.56046C13.3145 2.57692 13.3858 2.59521 13.4549 2.61531C13.4893 2.62555 13.5233 2.63615 13.5565 2.64676C13.69 2.69101 13.814 2.7433 13.9284 2.80364C14.0631 1.94539 13.9274 1.36105 13.4634 0.831907C12.9518 0.24939 12.0284 0 10.8469 0H7.41683C7.17546 0 6.96967 0.175516 6.9323 0.414306L5.50367 9.47029C5.47546 9.64945 5.61367 9.81113 5.7943 9.81113H7.91199L8.44367 6.43773L9.01557 2.81534Z" fill="var(--fill-0, #253B80)"/>
</g>
</svg>
