<svg preserveAspectRatio="none" width="100%" height="100%" overflow="visible" style="display: block;" viewBox="0 0 22.0986 13.8249" fill="none" xmlns="http://www.w3.org/2000/svg">
<g id="UnionPay">
<path id="Vector" d="M4.32774 0.00154114H9.84352C10.6135 0.00154114 11.0924 0.629119 10.9127 1.40163L8.34475 12.427C8.16353 13.1968 7.39263 13.8249 6.62214 13.8249H1.1069C0.338023 13.8249 -0.141937 13.1968 0.0376785 12.427L2.60674 1.40163C2.78636 0.629119 3.55685 0.00154114 4.32774 0.00154114Z" fill="var(--fill-0, #E21836)"/>
<path id="Vector_2" d="M9.38425 0H15.7273C16.4971 0 16.1499 0.627578 15.9688 1.40009L13.4013 12.4255C13.2211 13.1953 13.2773 13.8234 12.5059 13.8234H6.16287C5.39144 13.8234 4.91403 13.1953 5.09526 12.4255L7.66271 1.40009C7.84501 0.627578 8.61389 0 9.38425 0Z" fill="var(--fill-0, #00447C)"/>
<path id="Vector_3" d="M15.4758 0H20.9915C21.7626 0 22.2415 0.627578 22.0604 1.40009L19.4928 12.4255C19.3115 13.1953 18.5401 13.8234 17.7692 13.8234H12.256C11.4846 13.8234 11.0061 13.1953 11.1868 12.4255L13.7548 1.40009C13.9344 0.627578 14.7043 0 15.4758 0Z" fill="var(--fill-0, #007B84)"/>
<path id="Vector_4" d="M5.76799 3.53332C5.20078 3.5391 5.03326 3.53332 4.97975 3.52068C4.95918 3.61842 4.57643 5.38406 4.57535 5.38554C4.49294 5.74275 4.43298 5.99739 4.22929 6.16181C4.11367 6.2574 3.97869 6.30351 3.8222 6.30351C3.57066 6.30351 3.42412 6.17861 3.39951 5.94173L3.39481 5.86039C3.39481 5.86039 3.47144 5.38191 3.47144 5.37922C3.47144 5.37922 3.87316 3.77021 3.94508 3.55752C3.94885 3.54542 3.94992 3.5391 3.95086 3.53332C3.16895 3.54018 3.03034 3.53332 3.02079 3.52068C3.01555 3.53803 2.99619 3.63778 2.99619 3.63778L2.586 5.45128L2.55078 5.60508L2.48262 6.10817C2.48262 6.2574 2.51192 6.3792 2.57027 6.48219C2.75715 6.80875 3.29021 6.85768 3.59177 6.85768C3.98031 6.85768 4.34478 6.77514 4.59108 6.62443C5.01861 6.37181 5.13046 5.97695 5.23022 5.62606L5.27647 5.44604C5.27647 5.44604 5.69028 3.77492 5.7606 3.55752C5.76328 3.54542 5.76436 3.5391 5.76799 3.53332ZM7.17597 4.88143C7.07621 4.88143 6.89391 4.90563 6.73016 4.98589C6.67073 5.01641 6.61453 5.05164 6.55525 5.08673L6.60875 4.89353L6.57945 4.861C6.23218 4.93131 6.15447 4.94072 5.83369 4.98589L5.8068 5.00377C5.76956 5.31259 5.73649 5.54477 5.59842 6.15178C5.54585 6.37549 5.49127 6.60136 5.43655 6.82453L5.45134 6.8529C5.78005 6.83555 5.87981 6.83555 6.1655 6.84026L6.18862 6.81512C6.22492 6.62918 6.22963 6.58563 6.31002 6.20905C6.3478 6.03051 6.42658 5.63821 6.46544 5.49852C6.53683 5.46545 6.60728 5.43291 6.6745 5.43291C6.83462 5.43291 6.81512 5.5726 6.80894 5.62826C6.80208 5.7217 6.74373 6.02688 6.68391 6.28891L6.64398 6.45804C6.61615 6.58294 6.58563 6.70434 6.5578 6.82816L6.5699 6.8529C6.89391 6.83555 6.99272 6.83555 7.2694 6.84026L7.30194 6.81512C7.35195 6.52472 7.36661 6.44701 7.45534 6.02419L7.49997 5.82992C7.58669 5.44972 7.63025 5.25693 7.56464 5.0999C7.49527 4.92392 7.32883 4.88143 7.17597 4.88143ZM8.74884 5.2795C8.57662 5.31258 8.46678 5.33462 8.35761 5.34887C8.24938 5.36622 8.14385 5.38195 7.97741 5.40507L7.96423 5.41704L7.95213 5.42658C7.93479 5.55054 7.92269 5.65769 7.8997 5.78366C7.8802 5.91394 7.85022 6.06196 7.80142 6.27465C7.76364 6.43746 7.74415 6.49419 7.72264 6.55146C7.70166 6.60874 7.67854 6.6644 7.63606 6.82452L7.64601 6.83931L7.65434 6.85288C7.80989 6.84549 7.91166 6.84025 8.01626 6.83931C8.12072 6.83554 8.22895 6.83931 8.39646 6.84025L8.41112 6.82828L8.42685 6.81511C8.45105 6.67071 8.45468 6.63186 8.46947 6.56141C8.48412 6.48586 8.5094 6.38126 8.57137 6.10189C8.60068 5.97067 8.63335 5.83986 8.66374 5.70595C8.69533 5.57259 8.7284 5.44124 8.75986 5.31002L8.75516 5.29416L8.74884 5.2795ZM8.75251 4.74278C8.59602 4.65042 8.32135 4.67973 8.13649 4.80731C7.95217 4.93234 7.9312 5.10981 8.08715 5.20338C8.24095 5.29319 8.5167 5.26643 8.69994 5.13777C8.88386 5.01005 8.90685 4.8342 8.75251 4.74278ZM9.69892 6.88183C10.0155 6.88183 10.3401 6.79458 10.5844 6.53564C10.7723 6.32564 10.8585 6.0132 10.8883 5.88453C10.9855 5.45808 10.9098 5.25897 10.8148 5.13771C10.6704 4.95285 10.4152 4.89356 10.1505 4.89356C9.99133 4.89356 9.6122 4.90929 9.31602 5.18234C9.10334 5.3793 9.00506 5.64657 8.94577 5.90282C8.88594 6.16391 8.81711 6.63392 9.24934 6.80883C9.38271 6.8661 9.57496 6.88183 9.69892 6.88183ZM9.67418 5.92231C9.74718 5.59938 9.83336 5.32835 10.0533 5.32835C10.2257 5.32835 10.2382 5.53001 10.1615 5.85402C10.1478 5.92594 10.0849 6.19335 9.9998 6.30722C9.94038 6.39125 9.87006 6.4422 9.79235 6.4422C9.76923 6.4422 9.6317 6.4422 9.62954 6.23798C9.62847 6.13715 9.64904 6.03417 9.67418 5.92231ZM11.6798 6.8403L11.7045 6.81516C11.7396 6.62923 11.7454 6.58553 11.8231 6.20909C11.862 6.03055 11.9424 5.63825 11.9801 5.49856C12.0517 5.46536 12.1209 5.43282 12.1903 5.43282C12.3493 5.43282 12.33 5.57251 12.3236 5.62817C12.3179 5.72174 12.2595 6.02679 12.1986 6.28882L12.1608 6.45795C12.1319 6.58298 12.1005 6.70424 12.0726 6.8282L12.0847 6.85294C12.4098 6.83559 12.5049 6.83559 12.7832 6.8403L12.8168 6.81516C12.8656 6.52463 12.8788 6.44692 12.9702 6.02423L13.0137 5.82983C13.1009 5.44963 13.1449 5.25697 13.0804 5.09994C13.009 4.92396 12.8415 4.88147 12.6908 4.88147C12.5909 4.88147 12.4077 4.90554 12.2449 4.98593C12.1866 5.01645 12.1283 5.05154 12.071 5.08677L12.1209 4.89357L12.0941 4.8609C11.747 4.93135 11.6677 4.94076 11.3473 4.98593L11.3227 5.00381C11.2839 5.31263 11.2523 5.54468 11.1142 6.15182C11.0616 6.37553 11.007 6.6014 10.9525 6.82457L10.9671 6.85294C11.2964 6.83559 11.3946 6.83559 11.6798 6.8403ZM14.0682 6.85287C14.0887 6.75311 14.2101 6.16184 14.2111 6.16184C14.2111 6.16184 14.3145 5.72799 14.3209 5.71226C14.3209 5.71226 14.3534 5.66709 14.3859 5.64921H14.4338C14.8854 5.64921 15.3953 5.64921 15.795 5.35518C16.067 5.15352 16.2529 4.85573 16.3359 4.49381C16.3574 4.40507 16.3733 4.29954 16.3733 4.194C16.3733 4.05539 16.3454 3.91826 16.265 3.81111C16.0612 3.52595 15.6553 3.52071 15.1868 3.51856C15.1853 3.51856 14.9558 3.52071 14.9558 3.52071C14.3561 3.52811 14.1156 3.52595 14.0167 3.51385C14.0084 3.55755 13.9927 3.63526 13.9927 3.63526C13.9927 3.63526 13.7778 4.63094 13.7778 4.63255C13.7778 4.63255 13.2637 6.74948 13.2395 6.84924C13.7632 6.84292 13.9779 6.84292 14.0682 6.85287ZM14.4663 5.08414C14.4663 5.08414 14.6947 4.09048 14.6937 4.09424L14.7011 4.04329L14.7043 4.00444L14.7956 4.01385C14.7956 4.01385 15.2667 4.05431 15.2777 4.05539C15.4636 4.12732 15.5402 4.31271 15.4867 4.55471C15.4379 4.77587 15.2945 4.9618 15.1102 5.05161C14.9584 5.1277 14.7724 5.13402 14.5809 5.13402H14.4569L14.4663 5.08414ZM15.8885 5.94072C15.8281 6.19804 15.7588 6.66805 16.1889 6.83557C16.326 6.89392 16.4489 6.91126 16.5738 6.90494C16.7056 6.89781 16.8279 6.83167 16.9411 6.73648C16.9308 6.77561 16.9206 6.81473 16.9104 6.85399L16.9299 6.87913C17.2393 6.86609 17.3352 6.86609 17.6704 6.86864L17.7008 6.84552C17.7497 6.55781 17.7958 6.27844 17.923 5.72803C17.985 5.46439 18.0468 5.2033 18.1104 4.94073L18.1005 4.91183C17.7544 4.97596 17.6619 4.98967 17.3291 5.03686L17.3038 5.05743C17.3004 5.08418 17.2969 5.10986 17.2937 5.13554C17.2419 5.05192 17.1669 4.98053 17.0512 4.93603C16.9031 4.87781 16.5555 4.95283 16.2566 5.22495C16.0466 5.41922 15.9458 5.68541 15.8885 5.94072ZM16.6153 5.95645C16.6894 5.6393 16.7745 5.37095 16.995 5.37095C17.1344 5.37095 17.2078 5.49961 17.1929 5.71902C17.181 5.77374 17.1683 5.83142 17.1531 5.89662C17.131 5.99086 17.1071 6.0843 17.0838 6.17787C17.0602 6.24187 17.0326 6.30223 17.0024 6.34243C16.9456 6.42283 16.8106 6.47271 16.7329 6.47271C16.7109 6.47271 16.5748 6.47271 16.5701 6.27212C16.5691 6.17223 16.5896 6.06938 16.6153 5.95645ZM20.4107 4.90926L20.3839 4.87874C20.0415 4.94812 19.9795 4.95914 19.6649 5.00162L19.6418 5.02475C19.6407 5.02851 19.6398 5.03429 19.6382 5.03954L19.6371 5.03429C19.4029 5.57462 19.4098 5.45806 19.2191 5.88343C19.218 5.86407 19.218 5.85197 19.217 5.8314L19.1692 4.90926L19.1393 4.87874C18.7806 4.94812 18.7721 4.95914 18.4408 5.00162L18.415 5.02475C18.4114 5.03577 18.4114 5.04787 18.4092 5.06105L18.4114 5.06575C18.4528 5.27736 18.4428 5.23018 18.4844 5.56413C18.5038 5.72802 18.5296 5.89284 18.5489 6.05471C18.5816 6.32561 18.5999 6.45898 18.6398 6.87239C18.4161 7.24157 18.3631 7.38126 18.1477 7.70526L18.1492 7.70849L17.9976 7.94834C17.9802 7.97361 17.9645 7.99095 17.9425 7.99835C17.9183 8.01031 17.8868 8.01246 17.8431 8.01246H17.7591L17.6342 8.42789L18.0626 8.43529C18.3142 8.43421 18.4723 8.31657 18.5574 8.15847L18.8268 7.69679H18.8225L18.8509 7.66426C19.0321 7.27411 20.4107 4.90926 20.4107 4.90926ZM15.8885 10.3653H15.7067L16.3795 8.14012H16.6027L16.6735 7.91089L16.6804 8.1658C16.672 8.32336 16.796 8.46305 17.1216 8.43992H17.4982L17.6278 8.01146H17.4861C17.4046 8.01146 17.3668 7.99089 17.3715 7.94679L17.3647 7.68745H16.6673V7.68879C16.4419 7.6935 15.7686 7.71044 15.6322 7.74674C15.4673 7.78922 15.2935 7.91425 15.2935 7.91425L15.3617 7.68476H14.7094L14.5735 8.14012L13.8918 10.3993H13.7595L13.6297 10.8247H14.929L14.8854 10.9665H15.5256L15.5681 10.8247H15.7477L15.8885 10.3653ZM15.3554 8.59225C15.251 8.62115 15.0566 8.70881 15.0566 8.70881L15.2295 8.14012H15.7477L15.6227 8.55447C15.6227 8.55447 15.4626 8.56388 15.3554 8.59225ZM15.3654 9.40468C15.3654 9.40468 15.2026 9.42512 15.0954 9.44932C14.9899 9.48132 14.792 9.58215 14.792 9.58215L14.9705 8.99033H15.4915L15.3654 9.40468ZM15.075 10.3705H14.5551L14.7058 9.87106H15.2241L15.075 10.3705ZM16.327 8.99033H17.0764L16.9687 9.33908H16.2094L16.0953 9.72036H16.7598L16.2567 10.4287C16.2215 10.4808 16.1899 10.4992 16.1548 10.5138C16.1195 10.5317 16.0733 10.5527 16.0198 10.5527H15.8355L15.7088 10.9703H16.1909C16.4415 10.9703 16.5896 10.8563 16.6989 10.7066L17.0438 10.2345L17.1179 10.7139C17.1336 10.8037 17.1982 10.8563 17.2419 10.8767C17.2901 10.9009 17.34 10.9424 17.4105 10.9486C17.486 10.9518 17.5406 10.9544 17.5769 10.9544H17.8138L17.956 10.4871H17.8626C17.809 10.4871 17.7166 10.4781 17.7009 10.4613C17.6851 10.4408 17.6851 10.4094 17.6767 10.3615L17.6015 9.88101H17.2938L17.4287 9.72036H18.1866L18.3032 9.33908H17.6015L17.7108 8.99033H18.4103L18.5401 8.56025H16.4546L16.327 8.99033ZM9.99768 10.4676L10.1726 9.88576H10.8914L11.0228 9.45299H10.3033L10.4131 9.09483H11.1162L11.2465 8.67578H9.4872L9.35961 9.09483H9.75931L9.6527 9.45299H9.25192L9.11909 9.89315H9.51866L9.28553 10.663C9.25407 10.7649 9.30032 10.8037 9.32963 10.8511C9.35961 10.8972 9.38999 10.9277 9.45829 10.945C9.52874 10.9608 9.577 10.9702 9.64261 10.9702H10.453L10.5974 10.4908L10.2382 10.5401C10.1688 10.5401 9.9767 10.5318 9.99768 10.4676ZM10.0801 7.68214L9.89796 8.01139C9.85897 8.08332 9.82388 8.12795 9.79229 8.14852C9.76446 8.16586 9.70934 8.17312 9.62948 8.17312H9.53443L9.40738 8.59433H9.72305C9.87483 8.59433 9.9914 8.53867 10.0471 8.51084C10.1069 8.47885 10.1226 8.49713 10.1689 8.45249L10.2755 8.36013H11.2612L11.392 7.92158H10.6705L10.7964 7.68214H10.0801ZM11.5354 10.4761C11.5186 10.4519 11.5307 10.4093 11.5564 10.3205L11.8258 9.42878H12.7842C12.9239 9.42676 13.0247 9.42515 13.0904 9.42044C13.1608 9.41305 13.2374 9.38791 13.3209 9.34273C13.4071 9.29541 13.4512 9.24553 13.4884 9.18826C13.53 9.13112 13.5967 9.00609 13.6539 8.8133L13.9926 7.68479L12.998 7.69057C12.998 7.69057 12.6917 7.73574 12.5569 7.78562C12.4208 7.84128 12.2264 7.99669 12.2264 7.99669L12.3162 7.68734H11.7018L10.8417 10.5401C10.8111 10.6509 10.7907 10.7313 10.786 10.7795C10.7844 10.8316 10.8516 10.883 10.8952 10.9219C10.9467 10.9607 11.0228 10.9544 11.0958 10.9607C11.1725 10.9665 11.2817 10.9702 11.4324 10.9702H11.9046L12.0495 10.4808L11.6268 10.5207C11.5816 10.5207 11.549 10.4965 11.5354 10.4761ZM11.9996 8.82647H13.0063L12.9423 9.02706C12.9333 9.03177 12.9118 9.01711 12.8094 9.02921H11.9376L11.9996 8.82647ZM12.2013 8.15372H13.2165L13.1435 8.39532C13.1435 8.39532 12.665 8.39061 12.5883 8.40473C12.2512 8.46308 12.0542 8.64323 12.0542 8.64323L12.2013 8.15372ZM12.9649 9.69878C12.9565 9.72876 12.9434 9.74704 12.9249 9.76076C12.9045 9.77393 12.8714 9.77864 12.8221 9.77864H12.6786L12.6871 9.53435H12.0904L12.0662 10.7286C12.0653 10.8148 12.0736 10.8647 12.1367 10.9046C12.1998 10.9545 12.394 10.9608 12.6555 10.9608H13.0294L13.1644 10.5138L12.8389 10.5316L12.7307 10.538C12.7159 10.5316 12.7018 10.5259 12.686 10.5101C12.6723 10.4966 12.6492 10.5049 12.653 10.4187L12.6555 10.1126L12.9969 10.0985C13.1812 10.0985 13.26 10.0385 13.3272 9.98138C13.3913 9.92666 13.4123 9.86374 13.4365 9.77864L13.4938 9.5076H13.0247L12.9649 9.69878Z" fill="var(--fill-0, #FEFEFE)"/>
</g>
</svg>
