<svg preserveAspectRatio="none" width="100%" height="100%" overflow="visible" style="display: block;" viewBox="0 0 24.0001 24.0002" fill="none" xmlns="http://www.w3.org/2000/svg">
<g id="Group">
<path id="Vector" d="M7.5 0C3.35784 0 0 3.35784 0 7.5C0 11.6422 3.35784 15 7.5 15C7.56571 15.0001 7.63079 14.9873 7.69154 14.9622C7.75228 14.9372 7.80749 14.9004 7.854 14.854L14.854 7.854C14.9004 7.80748 14.9372 7.75227 14.9622 7.69153C14.9873 7.63079 15.0001 7.56571 15 7.5C14.9956 3.35967 11.6403 0.00440625 7.5 0Z" fill="var(--fill-0, #3BBCB7)"/>
<path id="Vector_2" d="M15.5001 7.00015C10.8057 7.00015 7.00015 10.8057 7.00015 15.5001C7.00015 20.1945 10.8057 24.0002 15.5001 24.0002C20.1946 24.0002 24.0001 20.1946 24.0001 15.5002C23.9946 10.808 20.1923 7.00568 15.5001 7.00015Z" fill="var(--fill-0, #FEC84B)"/>
<path id="Vector_3" d="M7.4998 22.0002C5.43425 21.8919 3.68867 20.432 3.21678 18.4181L4.2748 18.9472C4.52192 19.0706 4.82235 18.9703 4.94582 18.7232C5.06924 18.476 4.96897 18.1756 4.7218 18.0522L2.72178 17.0522C2.70777 17.0452 2.69178 17.0462 2.67678 17.0402C2.613 17.0158 2.54498 17.0046 2.47677 17.0072C2.46078 17.0063 2.44476 17.0063 2.42877 17.0072C2.41316 17.0117 2.39783 17.0171 2.38278 17.0232C2.25471 17.0533 2.14368 17.1327 2.07378 17.2442C2.06577 17.2572 2.05278 17.2662 2.0458 17.2802L1.04582 19.2802C0.922347 19.5272 1.02247 19.8275 1.26946 19.951L1.26983 19.9512C1.34144 19.9858 1.42035 20.0026 1.49985 20.0002C1.59279 20.0004 1.68395 19.9746 1.76308 19.9259C1.84222 19.8771 1.90619 19.8073 1.94783 19.7242L2.33582 18.9482C2.99755 21.2749 5.08241 22.9109 7.4998 23.0002C7.77594 23.0002 7.99982 22.7763 7.99982 22.5002C7.99982 22.224 7.77594 22.0002 7.4998 22.0002ZM22.7238 4.05115C22.4768 3.92768 22.1765 4.02781 22.053 4.27479L22.0528 4.27517L21.6648 5.05118C21.0026 2.72445 18.9173 1.08888 16.4998 1.00015C16.2237 1.00015 15.9998 1.22403 15.9998 1.50017C15.9998 1.77631 16.2237 2.00018 16.4998 2.00018C18.5644 2.10865 20.3092 3.56749 20.7818 5.58017L19.7238 5.05118C19.4766 4.92776 19.1762 5.02803 19.0528 5.2752C18.9293 5.52232 19.0296 5.82274 19.2768 5.94621L21.2768 6.9462H21.2978C21.3604 6.97854 21.4293 6.99696 21.4998 7.0002C21.5908 7.00105 21.6803 6.97609 21.7578 6.9282L21.7668 6.92018C21.8328 6.87647 21.8874 6.81747 21.9258 6.7482C21.9318 6.73821 21.9428 6.73418 21.9478 6.7242L22.9477 4.72418C23.0721 4.47762 22.9731 4.17696 22.7265 4.05256L22.7238 4.05115Z" fill="var(--fill-0, #3BBCB7)"/>
<path id="Vector_4" d="M16 15.0352V12.0352C17.125 12.1782 18 12.7922 18 13.5032C18 13.7793 18.2239 14.0032 18.5001 14.0032C18.7762 14.0032 19.0001 13.7793 19.0001 13.5032C19.0001 12.2231 17.7151 11.2032 16.0001 11.0382V10.5002C16.0001 10.224 15.7762 10.0001 15.5001 10.0001C15.2239 10.0001 15 10.224 15 10.5002V11.0351C13.285 11.2052 12 12.2202 12 13.5002C12 14.7802 13.285 15.8002 15 15.9652V18.9652C13.875 18.8222 13 18.2082 13 17.4972C13 17.2211 12.7762 16.9972 12.5 16.9972C12.2239 16.9972 12 17.2211 12 17.4972C12 18.7772 13.285 19.7972 15 19.9622V20.5002C15 20.7763 15.2239 21.0002 15.5 21.0002C15.7762 21.0002 16 20.7763 16 20.5002V19.9652C17.715 19.7952 19 18.7802 19 17.5002C19 16.2201 17.715 15.2002 16 15.0352ZM13 13.5002C13 12.7892 13.875 12.1752 15 12.0322V14.9692C13.875 14.8252 13 14.2112 13 13.5002ZM16 18.9682V16.0322C17.125 16.1752 18 16.7892 18 17.5002C18 18.2112 17.125 18.8252 16 18.9682Z" fill="var(--fill-0, white)" stroke="var(--stroke-0, white)" stroke-width="0.461538"/>
<path id="Vector_5" d="M7.50017 12C5.53817 12 4.00015 10.9 4.00015 9.50002V5.50003C4.00015 4.10002 5.53817 3 7.50017 3C9.46217 3 11.0002 4.10002 11.0002 5.49998C11.0002 5.77612 10.7763 6 10.5002 6C10.224 6 10.0001 5.77612 10.0001 5.49998C10.0001 4.68698 8.85513 3.99998 7.50017 3.99998C6.1452 3.99998 5.00018 4.68698 5.00018 5.49998V9.49997C5.00018 10.313 6.1452 11 7.50017 11C7.77631 11 8.00018 11.2238 8.00018 11.5C8.00018 11.7761 7.77631 12 7.50017 12Z" fill="var(--fill-0, white)" stroke="var(--stroke-0, white)" stroke-width="0.461538"/>
<path id="Vector_6" d="M8.49998 6.99998H3.50002C3.22387 6.99998 3 6.77611 3 6.49997C3 6.22383 3.22387 6 3.50002 6H8.50003C8.77617 6 9.00005 6.22387 9.00005 6.50002C9.00005 6.77616 8.77612 6.99998 8.49998 6.99998ZM8.49998 9H3.50002C3.22387 9 3 8.77612 3 8.49998C3 8.22384 3.22387 7.99997 3.50002 7.99997H8.50003C8.77617 7.99997 9.00005 8.22384 9.00005 8.49998C9 8.77612 8.77612 9 8.49998 9Z" fill="var(--fill-0, white)" stroke="var(--stroke-0, white)" stroke-width="0.461538"/>
</g>
</svg>
